if (_typeface_js && _typeface_js.loadFace) _typeface_js.loadFace({"glyphs":{"¦":{"x_min":285.828125,"x_max":408.328125,"ha":694,"o":"m 285 569 l 408 569 l 408 1062 l 285 1062 l 285 569 m 285 -90 l 408 -90 l 408 402 l 285 402 l 285 -90 "},"Ő":{"x_min":42.140625,"x_max":517.171875,"ha":550,"o":"m 191 748 b 269 844 191 818 221 844 b 347 748 317 844 347 818 l 347 223 b 269 127 347 154 317 127 b 191 223 221 127 191 154 l 191 748 m 42 233 b 269 -11 42 77 122 -11 b 496 233 416 -11 496 77 l 496 738 b 269 983 496 894 416 983 b 42 738 122 983 42 894 l 42 233 m 186 1181 l 115 1019 l 210 1019 l 330 1181 l 186 1181 m 372 1181 l 302 1019 l 397 1019 l 517 1181 l 372 1181 "},"Ž":{"x_min":31.3125,"x_max":469.578125,"ha":514,"o":"m 44 972 l 44 833 l 315 833 l 31 136 l 31 0 l 469 0 l 469 138 l 185 138 l 469 836 l 469 972 l 44 972 m 55 1181 l 182 1019 l 325 1019 l 451 1181 l 317 1181 l 253 1100 l 190 1181 l 55 1181 "},"Á":{"x_min":14.96875,"x_max":539,"ha":565,"o":"m 386 972 l 167 972 l 14 0 l 152 0 l 178 176 l 362 176 l 387 0 l 539 0 l 386 972 m 269 800 l 341 308 l 197 308 l 269 800 m 302 1181 l 204 1019 l 310 1019 l 457 1181 l 302 1181 "},"ĥ":{"x_min":53.8125,"x_max":526.109375,"ha":593,"o":"m 203 416 l 373 416 l 373 0 l 526 0 l 526 972 l 373 972 l 373 555 l 203 555 l 203 972 l 53 972 l 53 0 l 203 0 l 203 416 m 226 1019 l 289 1099 l 353 1019 l 488 1019 l 361 1181 l 218 1181 l 91 1019 l 226 1019 "},"Î":{"x_min":-68.0625,"x_max":328.03125,"ha":264,"o":"m 54 0 l 204 0 l 204 972 l 54 972 l 54 0 m 66 1019 l 129 1099 l 193 1019 l 328 1019 l 201 1181 l 58 1181 l -68 1019 l 66 1019 "},"e":{"x_min":54.4375,"x_max":462.78125,"ha":511,"o":"m 204 833 l 462 833 l 462 972 l 54 972 l 54 0 l 462 0 l 462 138 l 204 138 l 204 423 l 409 423 l 409 562 l 204 562 l 204 833 "},"»":{"x_min":21.78125,"x_max":461.421875,"ha":493,"o":"m 242 844 l 325 487 l 242 108 l 377 108 l 461 487 l 377 844 l 242 844 m 21 844 l 104 487 l 21 108 l 156 108 l 240 487 l 156 844 l 21 844 "},"ļ":{"x_min":54.265625,"x_max":449.84375,"ha":474,"o":"m 54 0 l 449 0 l 449 138 l 203 138 l 203 972 l 54 972 l 54 0 m 237 -188 l 198 -272 l 256 -272 l 321 -173 l 321 -47 l 183 -47 l 183 -188 l 237 -188 "},"Ĕ":{"x_min":54.4375,"x_max":462.78125,"ha":511,"o":"m 204 833 l 462 833 l 462 972 l 54 972 l 54 0 l 462 0 l 462 138 l 204 138 l 204 423 l 409 423 l 409 562 l 204 562 l 204 833 m 322 1181 b 254 1113 318 1126 295 1113 b 189 1181 215 1113 193 1126 l 95 1181 b 254 1013 96 1079 147 1013 b 416 1181 362 1013 416 1079 l 322 1181 "},"ò":{"x_min":42.078125,"x_max":496.6875,"ha":550,"o":"m 191 748 b 269 844 191 818 221 844 b 346 748 317 844 346 818 l 346 223 b 269 127 346 154 317 127 b 191 223 221 127 191 154 l 191 748 m 42 233 b 269 -11 42 77 122 -11 b 496 233 416 -11 496 77 l 496 738 b 269 983 496 894 416 983 b 42 738 122 983 42 894 l 42 233 m 84 1181 l 231 1019 l 344 1019 l 246 1181 l 84 1181 "},"ţ":{"x_min":13.609375,"x_max":476.390625,"ha":500,"o":"m 122 -151 b 239 -247 122 -215 178 -247 b 363 -133 306 -247 363 -216 b 277 -54 363 -84 330 -54 l 277 0 l 319 0 l 319 833 l 476 833 l 476 972 l 13 972 l 13 833 l 170 833 l 170 0 l 209 0 l 209 -101 l 224 -101 b 273 -140 257 -101 273 -113 b 238 -176 273 -163 261 -176 b 209 -151 224 -176 209 -170 l 209 -137 l 122 -137 l 122 -151 "},"^":{"x_min":27.21875,"x_max":511.78125,"ha":550,"o":"m 27 541 l 147 541 l 269 833 l 392 541 l 511 541 l 322 972 l 216 972 l 27 541 "},"«":{"x_min":21.78125,"x_max":461.421875,"ha":493,"o":"m 106 844 l 21 487 l 106 108 l 240 108 l 157 487 l 240 844 l 106 844 m 326 844 l 242 487 l 326 108 l 461 108 l 378 487 l 461 844 l 326 844 "},"í":{"x_min":54.015625,"x_max":309.90625,"ha":264,"o":"m 54 0 l 203 0 l 203 972 l 54 972 l 54 0 m 154 1181 l 56 1019 l 162 1019 l 309 1181 l 154 1181 "},"ˆ":{"x_min":-27.21875,"x_max":368.859375,"ha":347,"o":"m 107 1019 l 170 1099 l 234 1019 l 368 1019 l 242 1181 l 99 1181 l -27 1019 l 107 1019 "},"ū":{"x_min":47.640625,"x_max":494.078125,"ha":553,"o":"m 47 972 l 47 231 b 270 -12 47 76 123 -12 b 494 231 417 -12 494 76 l 494 972 l 352 972 l 352 222 b 274 127 352 152 322 127 b 197 222 227 127 197 152 l 197 972 l 47 972 m 107 1140 l 107 1026 l 436 1026 l 436 1140 l 107 1140 "},"Ẅ":{"x_min":20.421875,"x_max":745.890625,"ha":782,"o":"m 441 0 l 639 0 l 745 972 l 615 972 l 537 200 l 462 972 l 318 972 l 246 205 l 166 972 l 20 972 l 126 0 l 332 0 l 386 518 l 441 0 m 204 1161 l 204 1019 l 343 1019 l 343 1161 l 204 1161 m 421 1161 l 421 1019 l 560 1019 l 560 1161 l 421 1161 "},"ȷ":{"x_min":13.609375,"x_max":300.8125,"ha":356,"o":"m 13 0 b 85 -2 38 -2 58 -2 b 300 241 198 -2 300 47 l 300 972 l 151 972 l 151 230 b 65 137 151 155 112 137 b 13 138 49 137 29 137 l 13 0 "},"ņ":{"x_min":53.0625,"x_max":528.09375,"ha":593,"o":"m 374 0 l 528 0 l 528 971 l 394 971 l 394 389 l 240 971 l 53 971 l 53 0 l 187 0 l 187 703 l 374 0 m 416 1176 b 356 1130 398 1139 382 1130 b 216 1167 314 1130 277 1167 b 87 1069 167 1167 132 1151 l 163 1010 b 223 1056 181 1046 197 1056 b 363 1019 265 1056 302 1019 b 492 1117 412 1019 447 1035 l 416 1176 "},"ỳ":{"x_min":5.4375,"x_max":533.5625,"ha":550,"o":"m 194 0 l 344 0 l 344 322 l 533 972 l 390 972 l 276 529 l 161 972 l 5 972 l 194 322 l 194 0 m 91 1181 l 238 1019 l 351 1019 l 253 1181 l 91 1181 "},"č":{"x_min":42.046875,"x_max":488.921875,"ha":536,"o":"m 347 362 l 347 223 b 269 129 347 154 317 129 b 191 223 221 129 191 154 l 191 748 b 269 844 191 818 221 844 b 347 748 317 844 347 818 l 347 644 l 488 644 l 488 738 b 265 983 488 894 412 983 b 42 738 118 983 42 894 l 42 233 b 265 -11 42 77 118 -11 b 488 233 412 -11 488 77 l 488 362 l 347 362 m 66 1181 l 193 1019 l 336 1019 l 463 1181 l 328 1181 l 264 1100 l 201 1181 l 66 1181 "},"’":{"x_min":53.96875,"x_max":198.171875,"ha":258,"o":"m 111 825 l 71 686 l 132 686 l 198 840 l 198 972 l 53 972 l 53 825 l 111 825 "},"Ḟ":{"x_min":54.4375,"x_max":450.53125,"ha":478,"o":"m 204 833 l 450 833 l 450 972 l 54 972 l 54 0 l 204 0 l 204 401 l 397 401 l 397 540 l 204 540 l 204 833 m 178 1161 l 178 1019 l 317 1019 l 317 1161 l 178 1161 "},"-":{"x_min":47.640625,"x_max":319.859375,"ha":375,"o":"m 47 416 l 319 416 l 319 555 l 47 555 l 47 416 "},"Q":{"x_min":42.328125,"x_max":524.171875,"ha":550,"o":"m 42 233 b 269 -11 42 77 122 -11 b 374 7 309 -11 344 -4 b 503 -59 394 -34 437 -59 l 524 -59 l 524 76 l 510 76 b 468 97 486 76 475 79 b 496 233 487 133 496 179 l 496 739 b 269 983 496 894 416 983 b 42 739 122 983 42 894 l 42 233 m 192 748 b 269 844 192 818 222 844 b 347 748 317 844 347 818 l 347 223 b 269 127 347 154 317 127 b 192 223 222 127 192 154 l 192 748 "},"M":{"x_min":53.078125,"x_max":681.921875,"ha":751,"o":"m 261 972 l 53 972 l 53 0 l 183 0 l 183 687 l 295 0 l 436 0 l 540 697 l 540 0 l 681 0 l 681 972 l 473 972 l 371 281 l 261 972 "},"œ":{"x_min":40.828125,"x_max":759.5,"ha":814,"o":"m 500 833 l 759 833 l 759 972 l 264 972 b 40 731 114 972 40 887 l 40 240 b 264 0 40 84 114 0 l 759 0 l 759 138 l 500 138 l 500 423 l 706 423 l 706 562 l 500 562 l 500 833 m 351 138 l 266 138 b 190 233 219 138 190 163 l 190 738 b 266 833 190 808 219 833 l 351 833 l 351 138 "},"ě":{"x_min":54.015625,"x_max":462.34375,"ha":511,"o":"m 203 833 l 462 833 l 462 972 l 54 972 l 54 0 l 462 0 l 462 138 l 203 138 l 203 423 l 409 423 l 409 562 l 203 562 l 203 833 m 56 1181 l 183 1019 l 326 1019 l 452 1181 l 318 1181 l 254 1100 l 191 1181 l 56 1181 "},"ũ":{"x_min":48.03125,"x_max":494.484375,"ha":553,"o":"m 48 971 l 48 231 b 271 -12 48 76 124 -12 b 494 231 418 -12 494 76 l 494 971 l 352 971 l 352 221 b 275 127 352 152 322 127 b 197 221 227 127 197 152 l 197 971 l 48 971 m 399 1176 b 339 1130 381 1139 365 1130 b 199 1167 297 1130 260 1167 b 69 1069 150 1167 114 1151 l 146 1010 b 205 1056 163 1046 180 1056 b 346 1019 248 1056 284 1019 b 475 1117 395 1019 430 1035 l 399 1176 "},"ŭ":{"x_min":47.640625,"x_max":494.078125,"ha":553,"o":"m 47 972 l 47 231 b 270 -12 47 76 123 -12 b 494 231 417 -12 494 76 l 494 972 l 352 972 l 352 222 b 274 127 352 152 322 127 b 197 222 227 127 197 152 l 197 972 l 47 972 m 338 1181 b 270 1113 334 1126 311 1113 b 205 1181 231 1113 209 1126 l 111 1181 b 270 1013 112 1079 163 1013 b 432 1181 378 1013 432 1079 l 338 1181 "},"{":{"x_min":14.78125,"x_max":327.828125,"ha":357,"o":"m 138 486 b 227 609 208 504 224 558 l 233 748 b 306 847 238 825 258 847 l 327 847 l 327 972 l 251 972 b 100 818 167 972 107 923 l 89 631 b 14 548 85 568 71 548 l 14 423 b 89 340 71 423 85 404 l 100 154 b 251 0 107 48 167 0 l 327 0 l 327 125 l 306 125 b 233 223 258 125 238 147 l 227 362 b 138 486 224 413 208 468 "},"¼":{"x_min":88.328125,"x_max":826.0625,"ha":871,"o":"m 88 826 l 161 826 l 161 355 l 257 355 l 257 972 l 194 972 b 88 894 178 930 161 894 l 88 826 m 217 0 l 306 0 l 681 972 l 593 972 l 217 0 m 504 106 l 687 106 l 687 -4 l 781 -4 l 781 106 l 826 106 l 826 195 l 781 195 l 781 612 l 677 612 l 504 195 l 504 106 m 590 195 l 687 423 l 687 195 l 590 195 "},"#":{"x_min":20.421875,"x_max":537.640625,"ha":569,"o":"m 269 0 l 392 0 l 420 277 l 490 277 l 500 386 l 431 386 l 457 640 l 526 640 l 537 748 l 468 748 l 491 972 l 368 972 l 345 748 l 257 748 l 280 972 l 157 972 l 134 748 l 66 748 l 55 640 l 123 640 l 98 386 l 31 386 l 20 277 l 87 277 l 58 0 l 181 0 l 209 277 l 298 277 l 269 0 m 246 640 l 334 640 l 308 386 l 220 386 l 246 640 "},"Ĳ":{"x_min":54.4375,"x_max":559.421875,"ha":619,"o":"m 54 0 l 204 0 l 204 972 l 54 972 l 54 0 m 272 0 b 344 -2 296 -2 317 -2 b 559 241 457 -2 559 47 l 559 972 l 409 972 l 409 230 b 323 137 409 155 371 137 b 272 138 307 137 288 137 l 272 0 "},"Ê":{"x_min":54.4375,"x_max":462.78125,"ha":511,"o":"m 204 833 l 462 833 l 462 972 l 54 972 l 54 0 l 462 0 l 462 138 l 204 138 l 204 423 l 409 423 l 409 562 l 204 562 l 204 833 m 193 1019 l 255 1099 l 319 1019 l 454 1019 l 328 1181 l 185 1181 l 58 1019 l 193 1019 "},")":{"x_min":21.78125,"x_max":277.671875,"ha":349,"o":"m 21 972 l 21 847 l 58 847 b 127 759 106 847 127 829 l 127 212 b 58 125 127 143 106 125 l 21 125 l 21 0 l 68 0 b 277 212 217 0 277 56 l 277 759 b 68 972 277 915 217 972 l 21 972 "},"ș":{"x_min":31.296875,"x_max":477.796875,"ha":519,"o":"m 235 -188 l 195 -272 l 254 -272 l 319 -173 l 319 -47 l 181 -47 l 181 -188 l 235 -188 m 35 738 b 328 223 35 461 328 423 b 250 129 328 154 298 129 b 172 223 202 129 172 154 l 172 300 l 31 300 l 31 233 b 254 -11 31 77 107 -11 b 477 233 401 -11 477 77 b 185 748 477 511 185 548 b 260 844 185 818 212 844 b 334 748 307 844 334 818 l 334 701 l 476 701 l 476 738 b 255 983 476 894 401 983 b 35 738 110 983 35 894 "},"Å":{"x_min":15.171875,"x_max":539.203125,"ha":565,"o":"m 386 972 l 167 972 l 15 0 l 152 0 l 178 176 l 362 176 l 388 0 l 539 0 l 386 972 m 269 800 l 341 308 l 197 308 l 269 800 m 162 1130 b 276 1013 162 1065 212 1013 b 390 1130 340 1013 390 1065 b 276 1247 390 1195 340 1247 b 162 1130 212 1247 162 1195 m 232 1130 b 276 1175 232 1155 252 1175 b 320 1130 301 1175 320 1155 b 276 1086 320 1105 301 1086 b 232 1130 252 1086 232 1105 "},"¸":{"x_min":49,"x_max":289.921875,"ha":347,"o":"m 49 -151 b 166 -247 49 -215 104 -247 b 289 -133 232 -247 289 -216 b 204 -54 289 -84 257 -54 l 204 19 l 136 19 l 136 -101 l 151 -101 b 200 -140 183 -101 200 -113 b 164 -176 200 -163 187 -176 b 136 -151 151 -176 136 -170 l 136 -137 l 49 -137 l 49 -151 "},"a":{"x_min":14.96875,"x_max":539,"ha":565,"o":"m 386 972 l 167 972 l 14 0 l 152 0 l 178 176 l 362 176 l 387 0 l 539 0 l 386 972 m 269 800 l 341 308 l 197 308 l 269 800 "},"Ę":{"x_min":53.640625,"x_max":461.96875,"ha":511,"o":"m 203 833 l 461 833 l 461 972 l 53 972 l 53 0 l 321 0 b 251 -104 265 -31 251 -72 b 369 -190 251 -161 297 -190 b 461 -175 407 -190 430 -187 l 461 -97 b 412 -105 447 -101 440 -105 b 365 -66 388 -105 365 -93 b 398 0 365 -48 370 -25 l 461 0 l 461 138 l 203 138 l 203 423 l 408 423 l 408 562 l 203 562 l 203 833 "},"=":{"x_min":47.640625,"x_max":491.359375,"ha":550,"o":"m 47 427 l 47 319 l 491 319 l 491 427 l 47 427 m 47 652 l 47 544 l 491 544 l 491 652 l 47 652 "},"˚":{"x_min":55.8125,"x_max":284.46875,"ha":347,"o":"m 55 1130 b 170 1013 55 1065 106 1013 b 284 1130 234 1013 284 1065 b 170 1247 284 1195 234 1247 b 55 1130 106 1247 55 1195 m 126 1130 b 170 1175 126 1155 145 1175 b 213 1130 194 1175 213 1155 b 170 1086 213 1105 194 1086 b 126 1130 145 1086 126 1105 "},"ú":{"x_min":47.640625,"x_max":494.078125,"ha":553,"o":"m 47 972 l 47 231 b 270 -12 47 76 123 -12 b 494 231 417 -12 494 76 l 494 972 l 352 972 l 352 222 b 274 127 352 152 322 127 b 197 222 227 127 197 152 l 197 972 l 47 972 m 298 1181 l 200 1019 l 306 1019 l 453 1181 l 298 1181 "},"¯":{"x_min":5.4375,"x_max":334.828125,"ha":347,"o":"m 5 1140 l 5 1026 l 334 1026 l 334 1140 l 5 1140 "},"Z":{"x_min":31.3125,"x_max":469.578125,"ha":514,"o":"m 44 972 l 44 833 l 315 833 l 31 136 l 31 0 l 469 0 l 469 138 l 185 138 l 469 836 l 469 972 l 44 972 "},"u":{"x_min":47.640625,"x_max":494.078125,"ha":553,"o":"m 47 972 l 47 231 b 270 -12 47 76 123 -12 b 494 231 417 -12 494 76 l 494 972 l 352 972 l 352 222 b 274 127 352 152 322 127 b 197 222 227 127 197 152 l 197 972 l 47 972 "},"k":{"x_min":54.4375,"x_max":549.890625,"ha":575,"o":"m 396 0 l 549 0 l 341 538 l 549 972 l 402 972 l 204 548 l 204 972 l 54 972 l 54 0 l 204 0 l 204 298 l 250 387 l 396 0 "},"Ù":{"x_min":48.078125,"x_max":494.515625,"ha":553,"o":"m 48 972 l 48 231 b 271 -12 48 76 124 -12 b 494 231 418 -12 494 76 l 494 972 l 352 972 l 352 222 b 275 127 352 152 323 127 b 197 222 227 127 197 152 l 197 972 l 48 972 m 87 1181 l 234 1019 l 347 1019 l 249 1181 l 87 1181 "},"Ů":{"x_min":47.640625,"x_max":494.078125,"ha":553,"o":"m 47 972 l 47 231 b 270 -12 47 76 123 -12 b 494 231 417 -12 494 76 l 494 972 l 352 972 l 352 222 b 274 127 352 152 322 127 b 197 222 227 127 197 152 l 197 972 l 47 972 m 157 1130 b 272 1013 157 1065 208 1013 b 386 1130 336 1013 386 1065 b 272 1247 386 1195 336 1247 b 157 1130 208 1247 157 1195 m 228 1130 b 272 1175 228 1155 247 1175 b 315 1130 296 1175 315 1155 b 272 1086 315 1105 296 1086 b 228 1130 247 1086 228 1105 "},"¢":{"x_min":49,"x_max":495.4375,"ha":550,"o":"m 208 -20 l 330 -20 l 330 50 b 495 288 439 70 495 155 l 495 390 l 353 390 l 353 279 b 276 184 353 209 323 184 b 198 279 228 184 198 209 l 198 693 b 276 788 198 762 228 788 b 353 693 323 788 353 762 l 353 616 l 495 616 l 495 683 b 330 922 495 816 439 900 l 330 993 l 208 993 l 208 920 b 49 683 103 897 49 813 l 49 288 b 208 51 49 156 103 73 l 208 -20 "},"ḃ":{"x_min":55.015625,"x_max":517.796875,"ha":564,"o":"m 280 972 l 55 972 l 55 0 l 290 0 b 517 230 440 0 517 80 l 517 309 b 406 518 517 412 486 486 b 502 713 472 550 502 613 l 502 748 b 280 972 502 898 436 972 m 271 437 b 368 319 339 437 368 409 l 368 234 b 290 138 368 162 340 138 l 204 138 l 204 437 l 271 437 m 276 833 b 353 733 329 833 353 802 l 353 679 b 263 576 353 601 319 576 l 204 576 l 204 833 l 276 833 m 184 1161 l 184 1019 l 323 1019 l 323 1161 l 184 1161 "},"Ş":{"x_min":31.3125,"x_max":477.75,"ha":519,"o":"m 35 738 b 328 223 35 461 328 423 b 250 129 328 154 298 129 b 172 223 202 129 172 154 l 172 300 l 31 300 l 31 233 b 254 -11 31 77 107 -11 b 477 233 401 -11 477 77 b 185 748 477 511 185 548 b 259 844 185 818 212 844 b 334 748 307 844 334 818 l 334 701 l 476 701 l 476 738 b 255 983 476 894 401 983 b 35 738 110 983 35 894 m 125 -151 b 242 -247 125 -215 181 -247 b 366 -133 308 -247 366 -216 b 280 -54 366 -84 333 -54 l 280 19 l 212 19 l 212 -101 l 227 -101 b 276 -140 259 -101 276 -113 b 240 -176 276 -163 264 -176 b 212 -151 227 -176 212 -170 l 212 -137 l 125 -137 l 125 -151 "},"é":{"x_min":54.234375,"x_max":462.578125,"ha":511,"o":"m 203 833 l 462 833 l 462 972 l 54 972 l 54 0 l 462 0 l 462 138 l 203 138 l 203 423 l 409 423 l 409 562 l 203 562 l 203 833 m 282 1181 l 184 1019 l 291 1019 l 438 1181 l 282 1181 "},"B":{"x_min":55.015625,"x_max":517.796875,"ha":564,"o":"m 280 972 l 55 972 l 55 0 l 290 0 b 517 230 440 0 517 80 l 517 309 b 406 518 517 412 486 486 b 502 713 472 550 502 613 l 502 748 b 280 972 502 898 436 972 m 271 437 b 368 319 339 437 368 409 l 368 234 b 290 138 368 162 340 138 l 204 138 l 204 437 l 271 437 m 276 833 b 353 733 329 833 353 802 l 353 679 b 263 576 353 601 319 576 l 204 576 l 204 833 l 276 833 "},"…":{"x_min":54.4375,"x_max":596.171875,"ha":664,"o":"m 54 147 l 54 0 l 198 0 l 198 147 l 54 147 m 253 147 l 253 0 l 397 0 l 397 147 l 253 147 m 451 147 l 451 0 l 596 0 l 596 147 l 451 147 "},"ē":{"x_min":54.4375,"x_max":462.78125,"ha":511,"o":"m 204 833 l 462 833 l 462 972 l 54 972 l 54 0 l 462 0 l 462 138 l 204 138 l 204 423 l 409 423 l 409 562 l 204 562 l 204 833 m 91 1140 l 91 1026 l 420 1026 l 420 1140 l 91 1140 "},"H":{"x_min":54.4375,"x_max":526.75,"ha":593,"o":"m 204 416 l 374 416 l 374 0 l 526 0 l 526 972 l 374 972 l 374 555 l 204 555 l 204 972 l 54 972 l 54 0 l 204 0 l 204 416 "},"î":{"x_min":-68.0625,"x_max":328.03125,"ha":264,"o":"m 54 0 l 204 0 l 204 972 l 54 972 l 54 0 m 66 1019 l 129 1099 l 193 1019 l 328 1019 l 201 1181 l 58 1181 l -68 1019 l 66 1019 "},"−":{"x_min":34.03125,"x_max":504.96875,"ha":550,"o":"m 34 540 l 34 431 l 504 431 l 504 540 l 34 540 "},"¥":{"x_min":9.53125,"x_max":529.46875,"ha":550,"o":"m 386 972 l 276 543 l 166 972 l 9 972 l 182 376 l 70 376 l 70 300 l 194 300 l 194 237 l 70 237 l 70 161 l 194 161 l 194 0 l 344 0 l 344 161 l 468 161 l 468 237 l 344 237 l 344 300 l 468 300 l 468 376 l 355 376 l 529 972 l 386 972 "},"Ĥ":{"x_min":53.8125,"x_max":526.109375,"ha":593,"o":"m 203 416 l 373 416 l 373 0 l 526 0 l 526 972 l 373 972 l 373 555 l 203 555 l 203 972 l 53 972 l 53 0 l 203 0 l 203 416 m 226 1019 l 289 1099 l 353 1019 l 488 1019 l 361 1181 l 218 1181 l 91 1019 l 226 1019 "},"U":{"x_min":47.640625,"x_max":494.078125,"ha":553,"o":"m 47 972 l 47 231 b 270 -12 47 76 123 -12 b 494 231 417 -12 494 76 l 494 972 l 352 972 l 352 222 b 274 127 352 152 322 127 b 197 222 227 127 197 152 l 197 972 l 47 972 "},"Ñ":{"x_min":53.0625,"x_max":528.09375,"ha":593,"o":"m 374 0 l 528 0 l 528 971 l 394 971 l 394 389 l 240 971 l 53 971 l 53 0 l 187 0 l 187 703 l 374 0 m 416 1176 b 356 1130 398 1139 382 1130 b 216 1167 314 1130 277 1167 b 87 1069 167 1167 132 1151 l 163 1010 b 223 1056 181 1046 197 1056 b 363 1019 265 1056 302 1019 b 492 1117 412 1019 447 1035 l 416 1176 "},"F":{"x_min":54.4375,"x_max":450.53125,"ha":478,"o":"m 204 833 l 450 833 l 450 972 l 54 972 l 54 0 l 204 0 l 204 401 l 397 401 l 397 540 l 204 540 l 204 833 "},"ĵ":{"x_min":2.71875,"x_max":398.8125,"ha":356,"o":"m 13 0 b 85 -2 38 -2 58 -2 b 300 241 198 -2 300 47 l 300 972 l 151 972 l 151 230 b 65 137 151 155 112 137 b 13 138 49 137 29 137 l 13 0 m 137 1019 l 200 1099 l 264 1019 l 398 1019 l 272 1181 l 129 1181 l 2 1019 l 137 1019 "},"ā":{"x_min":15.078125,"x_max":539.109375,"ha":565,"o":"m 386 972 l 167 972 l 15 0 l 152 0 l 178 176 l 362 176 l 388 0 l 539 0 l 386 972 m 269 800 l 341 308 l 197 308 l 269 800 m 111 1140 l 111 1026 l 441 1026 l 441 1140 l 111 1140 "},"Ĩ":{"x_min":-73.5,"x_max":332.109375,"ha":264,"o":"m 54 0 l 204 0 l 204 971 l 54 971 l 54 0 m 255 1176 b 196 1130 238 1139 221 1130 b 55 1167 153 1130 117 1167 b -73 1069 6 1167 -28 1151 l 2 1010 b 62 1056 20 1046 36 1056 b 202 1019 104 1056 141 1019 b 332 1117 251 1019 287 1035 l 255 1176 "},"ă":{"x_min":16.109375,"x_max":540.140625,"ha":565,"o":"m 387 972 l 168 972 l 16 0 l 153 0 l 179 176 l 363 176 l 389 0 l 540 0 l 387 972 m 270 800 l 342 308 l 198 308 l 270 800 m 344 1181 b 276 1113 340 1126 316 1113 b 210 1181 236 1113 214 1126 l 116 1181 b 276 1013 118 1079 168 1013 b 438 1181 383 1013 438 1079 l 344 1181 "},"*":{"x_min":2.71875,"x_max":536.28125,"ha":550,"o":"m 40 847 l 2 729 l 225 690 l 66 527 l 164 454 l 269 659 l 374 454 l 472 527 l 313 690 l 536 729 l 498 847 l 295 742 l 330 972 l 208 972 l 243 742 l 40 847 "},"†":{"x_min":34.03125,"x_max":504.96875,"ha":550,"o":"m 34 611 l 208 611 l 208 -90 l 330 -90 l 330 611 l 504 611 l 504 729 l 330 729 l 330 972 l 208 972 l 208 729 l 34 729 l 34 611 "},"°":{"x_min":20.421875,"x_max":289.921875,"ha":317,"o":"m 20 845 b 155 708 20 769 80 708 b 289 845 230 708 289 769 b 155 983 289 922 230 983 b 20 845 80 983 20 922 m 88 845 b 155 913 88 883 118 913 b 221 845 191 913 221 883 b 155 777 221 808 191 777 b 88 845 118 777 88 808 "},"å":{"x_min":15.171875,"x_max":539.203125,"ha":565,"o":"m 386 972 l 167 972 l 15 0 l 152 0 l 178 176 l 362 176 l 388 0 l 539 0 l 386 972 m 269 800 l 341 308 l 197 308 l 269 800 m 162 1130 b 276 1013 162 1065 212 1013 b 390 1130 340 1013 390 1065 b 276 1247 390 1195 340 1247 b 162 1130 212 1247 162 1195 m 232 1130 b 276 1175 232 1155 252 1175 b 320 1130 301 1175 320 1155 b 276 1086 320 1105 301 1086 b 232 1130 252 1086 232 1105 "},"0":{"x_min":42.1875,"x_max":496.8125,"ha":550,"o":"m 191 748 b 269 844 191 818 221 844 b 347 748 317 844 347 818 l 347 223 b 269 127 347 154 317 127 b 191 223 221 127 191 154 l 191 748 m 42 233 b 269 -11 42 77 122 -11 b 496 233 416 -11 496 77 l 496 738 b 269 983 496 894 416 983 b 42 738 122 983 42 894 l 42 233 "},"ō":{"x_min":42.1875,"x_max":496.8125,"ha":550,"o":"m 191 748 b 269 844 191 818 221 844 b 347 748 317 844 347 818 l 347 223 b 269 127 347 154 317 127 b 191 223 221 127 191 154 l 191 748 m 42 233 b 269 -11 42 77 122 -11 b 496 233 416 -11 496 77 l 496 738 b 269 983 496 894 416 983 b 42 738 122 983 42 894 l 42 233 m 104 1140 l 104 1026 l 434 1026 l 434 1140 l 104 1140 "},"”":{"x_min":53.96875,"x_max":397.171875,"ha":461,"o":"m 111 825 l 71 686 l 132 686 l 198 840 l 198 972 l 53 972 l 53 825 l 111 825 m 310 825 l 270 686 l 331 686 l 397 840 l 397 972 l 252 972 l 252 825 l 310 825 "},"ŵ":{"x_min":20.421875,"x_max":745.890625,"ha":782,"o":"m 441 0 l 639 0 l 745 972 l 615 972 l 537 199 l 462 972 l 318 972 l 246 205 l 166 972 l 20 972 l 126 0 l 332 0 l 386 517 l 441 0 m 319 1019 l 382 1099 l 446 1019 l 581 1019 l 454 1181 l 311 1181 l 185 1019 l 319 1019 "},"Ķ":{"x_min":54.234375,"x_max":549.8125,"ha":575,"o":"m 396 0 l 549 0 l 341 538 l 549 972 l 402 972 l 203 548 l 203 972 l 54 972 l 54 0 l 203 0 l 203 298 l 250 387 l 396 0 m 277 -188 l 237 -272 l 296 -272 l 361 -173 l 361 -47 l 223 -47 l 223 -188 l 277 -188 "},"ö":{"x_min":42.1875,"x_max":496.8125,"ha":550,"o":"m 191 748 b 269 844 191 818 221 844 b 347 748 317 844 347 818 l 347 223 b 269 127 347 154 317 127 b 191 223 221 127 191 154 l 191 748 m 42 233 b 269 -11 42 77 122 -11 b 496 233 416 -11 496 77 l 496 738 b 269 983 496 894 416 983 b 42 738 122 983 42 894 l 42 233 m 91 1161 l 91 1019 l 230 1019 l 230 1161 l 91 1161 m 308 1161 l 308 1019 l 447 1019 l 447 1161 l 308 1161 "},"ǽ":{"x_min":5.4375,"x_max":751.328125,"ha":806,"o":"m 343 0 l 751 0 l 751 138 l 492 138 l 492 423 l 698 423 l 698 562 l 492 562 l 492 833 l 751 833 l 751 972 l 259 972 l 5 0 l 148 0 l 191 176 l 343 176 l 343 0 m 225 308 l 343 776 l 343 308 l 225 308 m 420 1181 l 322 1019 l 428 1019 l 575 1181 l 420 1181 "},"Ļ":{"x_min":54.265625,"x_max":449.84375,"ha":474,"o":"m 54 0 l 449 0 l 449 138 l 203 138 l 203 972 l 54 972 l 54 0 m 237 -188 l 198 -272 l 256 -272 l 321 -173 l 321 -47 l 183 -47 l 183 -188 l 237 -188 "},"Õ":{"x_min":42.046875,"x_max":496.65625,"ha":550,"o":"m 191 748 b 269 844 191 817 221 844 b 346 748 317 844 346 817 l 346 223 b 269 127 346 153 317 127 b 191 223 221 127 191 153 l 191 748 m 42 232 b 269 -11 42 77 122 -11 b 496 232 416 -11 496 77 l 496 738 b 269 982 496 894 416 982 b 42 738 122 982 42 894 l 42 232 m 395 1176 b 336 1130 378 1139 361 1130 b 195 1167 293 1130 257 1167 b 66 1069 146 1167 111 1151 l 142 1010 b 202 1056 160 1046 176 1056 b 342 1019 244 1056 281 1019 b 472 1117 391 1019 427 1035 l 395 1176 "},"ć":{"x_min":42.1875,"x_max":488.640625,"ha":536,"o":"m 347 362 l 347 223 b 269 129 347 154 317 129 b 191 223 221 129 191 154 l 191 748 b 269 844 191 818 221 844 b 347 748 317 844 347 818 l 347 644 l 488 644 l 488 738 b 265 983 488 894 412 983 b 42 738 118 983 42 894 l 42 233 b 265 -11 42 77 118 -11 b 488 233 412 -11 488 77 l 488 362 l 347 362 m 291 1181 l 193 1019 l 299 1019 l 446 1181 l 291 1181 "},"þ":{"x_min":54.4375,"x_max":498.171875,"ha":524,"o":"m 54 0 l 204 0 l 204 254 l 274 254 b 498 494 424 254 498 338 l 498 620 b 274 861 498 776 424 861 l 204 861 l 204 972 l 54 972 l 54 0 m 274 722 b 348 630 322 722 348 700 l 348 484 b 274 393 348 415 322 393 l 204 393 l 204 722 l 274 722 "},"]":{"x_min":29.9375,"x_max":277.671875,"ha":349,"o":"m 277 972 l 29 972 l 29 847 l 127 847 l 127 125 l 29 125 l 29 0 l 277 0 l 277 972 "},"ẁ":{"x_min":20.421875,"x_max":745.890625,"ha":782,"o":"m 441 0 l 639 0 l 745 972 l 615 972 l 537 200 l 462 972 l 318 972 l 246 205 l 166 972 l 20 972 l 126 0 l 332 0 l 386 518 l 441 0 m 198 1181 l 345 1019 l 458 1019 l 360 1181 l 198 1181 "},"ĭ":{"x_min":-31.3125,"x_max":289.921875,"ha":264,"o":"m 54 0 l 204 0 l 204 972 l 54 972 l 54 0 m 196 1181 b 127 1113 191 1126 168 1113 b 62 1181 88 1113 66 1126 l -31 1181 b 127 1013 -29 1079 20 1013 b 289 1181 235 1013 289 1079 l 196 1181 "},"8":{"x_min":35.171875,"x_max":503.828125,"ha":550,"o":"m 503 233 l 503 309 b 411 512 503 402 476 475 b 503 708 472 547 503 612 l 503 738 b 269 983 503 894 420 983 b 35 738 118 983 35 894 l 35 708 b 127 512 35 612 65 547 b 35 309 62 475 35 402 l 35 233 b 269 -11 35 77 118 -11 b 503 233 420 -11 503 77 m 184 237 l 184 327 b 269 437 184 404 216 437 b 354 327 322 437 354 404 l 354 237 b 269 127 352 151 317 127 b 184 237 221 127 184 151 m 184 733 b 269 844 184 820 221 844 b 354 733 317 844 354 820 l 354 679 b 269 576 354 601 317 576 b 184 679 220 576 184 601 l 184 733 "},"R":{"x_min":54.640625,"x_max":520.140625,"ha":558,"o":"m 520 0 b 503 118 505 36 503 70 l 503 268 b 404 475 503 369 479 443 b 502 672 471 506 502 572 l 502 748 b 280 972 502 898 435 972 l 54 972 l 54 0 l 204 0 l 204 395 l 256 395 b 354 272 324 395 354 362 l 354 119 b 367 0 354 40 359 25 l 520 0 m 276 833 b 352 733 329 833 352 802 l 352 637 b 262 534 352 559 318 534 l 204 534 l 204 833 l 276 833 "},"ť":{"x_min":13.609375,"x_max":476.390625,"ha":500,"o":"m 13 833 l 170 833 l 170 0 l 319 0 l 319 833 l 476 833 l 476 972 l 13 972 l 13 833 m 46 1181 l 172 1019 l 315 1019 l 442 1181 l 307 1181 l 243 1100 l 181 1181 l 46 1181 "},"Ľ":{"x_min":54.21875,"x_max":450.234375,"ha":474,"o":"m 54 0 l 450 0 l 450 138 l 203 138 l 203 972 l 54 972 l 54 0 m 344 825 l 304 686 l 365 686 l 431 840 l 431 972 l 286 972 l 286 825 l 344 825 "},"Ż":{"x_min":31.546875,"x_max":470,"ha":514,"o":"m 45 972 l 45 833 l 316 833 l 31 136 l 31 0 l 470 0 l 470 138 l 185 138 l 470 836 l 470 972 l 45 972 m 184 1161 l 184 1019 l 323 1019 l 323 1161 l 184 1161 "},"o":{"x_min":42.1875,"x_max":496.8125,"ha":550,"o":"m 191 748 b 269 844 191 818 221 844 b 347 748 317 844 347 818 l 347 223 b 269 127 347 154 317 127 b 191 223 221 127 191 154 l 191 748 m 42 233 b 269 -11 42 77 122 -11 b 496 233 416 -11 496 77 l 496 738 b 269 983 496 894 416 983 b 42 738 122 983 42 894 l 42 233 "},"5":{"x_min":47.640625,"x_max":494.078125,"ha":550,"o":"m 47 313 l 47 233 b 270 -11 47 77 123 -11 b 494 233 417 -11 494 77 l 494 449 b 328 671 494 592 438 671 b 197 601 268 671 224 646 l 209 833 l 469 833 l 469 971 l 74 971 l 47 408 l 189 408 l 189 437 b 266 533 189 506 219 533 b 344 437 314 533 344 506 l 344 223 b 266 128 344 153 314 128 b 189 223 219 128 189 153 l 189 313 l 47 313 "},"ħ":{"x_min":13.609375,"x_max":581.1875,"ha":607,"o":"m 210 416 l 381 416 l 381 0 l 533 0 l 533 697 l 581 697 l 581 811 l 533 811 l 533 972 l 381 972 l 381 811 l 210 811 l 210 972 l 61 972 l 61 811 l 13 811 l 13 697 l 61 697 l 61 0 l 210 0 l 210 416 m 210 555 l 210 697 l 381 697 l 381 555 l 210 555 "},"õ":{"x_min":42.046875,"x_max":496.65625,"ha":550,"o":"m 191 748 b 269 844 191 817 221 844 b 346 748 317 844 346 817 l 346 223 b 269 127 346 153 317 127 b 191 223 221 127 191 153 l 191 748 m 42 232 b 269 -11 42 77 122 -11 b 496 232 416 -11 496 77 l 496 738 b 269 982 496 894 416 982 b 42 738 122 982 42 894 l 42 232 m 395 1176 b 336 1130 378 1139 361 1130 b 195 1167 293 1130 257 1167 b 66 1069 146 1167 111 1151 l 142 1010 b 202 1056 160 1046 176 1056 b 342 1019 244 1056 281 1019 b 472 1117 391 1019 427 1035 l 395 1176 "},"Ṡ":{"x_min":31.3125,"x_max":477.75,"ha":519,"o":"m 35 738 b 328 223 35 461 328 423 b 250 129 328 154 298 129 b 172 223 202 129 172 154 l 172 300 l 31 300 l 31 233 b 254 -11 31 77 107 -11 b 477 233 401 -11 477 77 b 185 748 477 511 185 548 b 259 844 185 818 212 844 b 334 748 307 844 334 818 l 334 701 l 476 701 l 476 738 b 255 983 476 894 401 983 b 35 738 110 983 35 894 m 185 1161 l 185 1019 l 323 1019 l 323 1161 l 185 1161 "},",":{"x_min":53.96875,"x_max":198.171875,"ha":258,"o":"m 111 0 l 71 -138 l 132 -138 l 198 15 l 198 147 l 53 147 l 53 0 l 111 0 "},"d":{"x_min":54.4375,"x_max":514.5,"ha":567,"o":"m 54 0 l 291 0 b 514 240 441 0 514 84 l 514 731 b 291 972 514 887 441 972 l 54 972 l 54 0 m 288 833 b 364 738 336 833 364 808 l 364 233 b 288 138 364 163 336 138 l 204 138 l 204 833 l 288 833 "},"\"":{"x_min":54.4375,"x_max":387.921875,"ha":451,"o":"m 74 686 l 176 686 l 198 972 l 54 972 l 74 686 m 264 686 l 366 686 l 387 972 l 243 972 l 264 686 "},"˙":{"x_min":100.71875,"x_max":239.5625,"ha":347,"o":"m 100 1161 l 100 1019 l 239 1019 l 239 1161 l 100 1161 "},"ê":{"x_min":54.4375,"x_max":462.78125,"ha":511,"o":"m 204 833 l 462 833 l 462 972 l 54 972 l 54 0 l 462 0 l 462 138 l 204 138 l 204 423 l 409 423 l 409 562 l 204 562 l 204 833 m 193 1019 l 255 1099 l 319 1019 l 454 1019 l 328 1181 l 185 1181 l 58 1019 l 193 1019 "},"„":{"x_min":53.96875,"x_max":397.171875,"ha":461,"o":"m 111 0 l 71 -138 l 132 -138 l 198 15 l 198 147 l 53 147 l 53 0 l 111 0 m 310 0 l 270 -138 l 331 -138 l 397 15 l 397 147 l 252 147 l 252 0 l 310 0 "},"ľ":{"x_min":54.21875,"x_max":450.234375,"ha":474,"o":"m 54 0 l 450 0 l 450 138 l 203 138 l 203 972 l 54 972 l 54 0 m 344 825 l 304 686 l 365 686 l 431 840 l 431 972 l 286 972 l 286 825 l 344 825 "},"Â":{"x_min":14.96875,"x_max":539,"ha":565,"o":"m 386 972 l 167 972 l 14 0 l 152 0 l 178 176 l 362 176 l 387 0 l 539 0 l 386 972 m 269 799 l 341 308 l 197 308 l 269 799 m 213 1019 l 276 1099 l 340 1019 l 475 1019 l 348 1181 l 205 1181 l 78 1019 l 213 1019 "},"Į":{"x_min":22.375,"x_max":233.359375,"ha":264,"o":"m 55 0 l 79 0 b 22 -104 37 -31 22 -72 b 140 -190 22 -161 68 -190 b 233 -175 178 -190 202 -187 l 233 -97 b 184 -105 218 -101 211 -105 b 136 -66 159 -105 136 -93 b 169 0 136 -48 142 -25 l 204 0 l 204 972 l 55 972 l 55 0 "},"ė":{"x_min":54.4375,"x_max":462.78125,"ha":511,"o":"m 204 833 l 462 833 l 462 972 l 54 972 l 54 0 l 462 0 l 462 138 l 204 138 l 204 423 l 409 423 l 409 562 l 204 562 l 204 833 m 186 1161 l 186 1019 l 325 1019 l 325 1161 l 186 1161 "},"Ţ":{"x_min":13.609375,"x_max":476.390625,"ha":500,"o":"m 122 -151 b 239 -247 122 -215 178 -247 b 363 -133 306 -247 363 -216 b 277 -54 363 -84 330 -54 l 277 0 l 319 0 l 319 833 l 476 833 l 476 972 l 13 972 l 13 833 l 170 833 l 170 0 l 209 0 l 209 -101 l 224 -101 b 273 -140 257 -101 273 -113 b 238 -176 273 -163 261 -176 b 209 -151 224 -176 209 -170 l 209 -137 l 122 -137 l 122 -151 "},"Í":{"x_min":54.015625,"x_max":309.90625,"ha":264,"o":"m 54 0 l 203 0 l 203 972 l 54 972 l 54 0 m 154 1181 l 56 1019 l 162 1019 l 309 1181 l 154 1181 "},"´":{"x_min":43.5625,"x_max":296.71875,"ha":347,"o":"m 141 1181 l 43 1019 l 149 1019 l 296 1181 l 141 1181 "},"Ú":{"x_min":47.640625,"x_max":494.078125,"ha":553,"o":"m 47 972 l 47 231 b 270 -12 47 76 123 -12 b 494 231 417 -12 494 76 l 494 972 l 352 972 l 352 222 b 274 127 352 152 322 127 b 197 222 227 127 197 152 l 197 972 l 47 972 m 298 1181 l 200 1019 l 306 1019 l 453 1181 l 298 1181 "},"Ŷ":{"x_min":5.4375,"x_max":533.5625,"ha":550,"o":"m 194 0 l 344 0 l 344 322 l 533 972 l 390 972 l 276 528 l 161 972 l 5 972 l 194 322 l 194 0 m 212 1019 l 274 1099 l 338 1019 l 473 1019 l 347 1181 l 204 1181 l 77 1019 l 212 1019 "},"ŝ":{"x_min":31.515625,"x_max":477.953125,"ha":519,"o":"m 35 738 b 328 223 35 460 328 423 b 250 128 328 153 298 128 b 173 223 203 128 173 153 l 173 299 l 31 299 l 31 233 b 254 -11 31 77 107 -11 b 477 233 401 -11 477 77 b 185 748 477 510 185 548 b 260 844 185 817 212 844 b 335 748 307 844 335 817 l 335 701 l 476 701 l 476 738 b 256 983 476 894 401 983 b 35 738 110 983 35 894 m 190 1019 l 253 1099 l 317 1019 l 452 1019 l 325 1181 l 182 1181 l 56 1019 l 190 1019 "},"Ý":{"x_min":5.828125,"x_max":533.9375,"ha":550,"o":"m 195 0 l 344 0 l 344 322 l 533 972 l 391 972 l 276 529 l 162 972 l 5 972 l 195 322 l 195 0 m 301 1181 l 203 1019 l 309 1019 l 456 1181 l 301 1181 "},"Ĉ":{"x_min":42.484375,"x_max":488.921875,"ha":536,"o":"m 347 362 l 347 223 b 269 128 347 153 317 128 b 192 223 222 128 192 153 l 192 748 b 269 844 192 817 222 844 b 347 748 317 844 347 817 l 347 644 l 488 644 l 488 738 b 265 983 488 894 412 983 b 42 738 118 983 42 894 l 42 233 b 265 -11 42 77 118 -11 b 488 233 412 -11 488 77 l 488 362 l 347 362 m 201 1019 l 264 1099 l 328 1019 l 463 1019 l 336 1181 l 193 1181 l 66 1019 l 201 1019 "},"ą":{"x_min":14.90625,"x_max":538.796875,"ha":565,"o":"m 386 972 l 167 972 l 14 0 l 152 0 l 178 176 l 361 176 l 387 1 b 327 -104 344 -30 327 -70 b 446 -190 327 -161 374 -190 b 538 -175 484 -190 507 -187 l 538 -97 b 489 -105 523 -101 517 -105 b 442 -66 465 -105 442 -93 b 474 0 442 -48 447 -25 l 538 0 l 386 972 m 269 800 l 341 308 l 197 308 l 269 800 "},"Ö":{"x_min":42.1875,"x_max":496.8125,"ha":550,"o":"m 191 748 b 269 844 191 818 221 844 b 347 748 317 844 347 818 l 347 223 b 269 127 347 154 317 127 b 191 223 221 127 191 154 l 191 748 m 42 233 b 269 -11 42 77 122 -11 b 496 233 416 -11 496 77 l 496 738 b 269 983 496 894 416 983 b 42 738 122 983 42 894 l 42 233 m 91 1161 l 91 1019 l 230 1019 l 230 1161 l 91 1161 m 308 1161 l 308 1019 l 447 1019 l 447 1161 l 308 1161 "},"z":{"x_min":31.3125,"x_max":469.578125,"ha":514,"o":"m 44 972 l 44 833 l 315 833 l 31 136 l 31 0 l 469 0 l 469 138 l 185 138 l 469 836 l 469 972 l 44 972 "},"™":{"x_min":13.609375,"x_max":763.578125,"ha":814,"o":"m 496 972 l 364 972 l 364 477 l 447 477 l 447 826 l 519 477 l 609 477 l 673 829 l 673 477 l 763 477 l 763 972 l 631 972 l 567 625 l 496 972 m 13 883 l 112 883 l 112 477 l 208 477 l 208 883 l 307 883 l 307 972 l 13 972 l 13 883 "},"Ř":{"x_min":54.015625,"x_max":520.265625,"ha":558,"o":"m 520 0 b 503 118 505 36 503 70 l 503 268 b 404 475 503 369 479 443 b 502 672 471 506 502 572 l 502 748 b 280 972 502 898 435 972 l 54 972 l 54 0 l 204 0 l 204 395 l 255 395 b 354 272 324 395 354 362 l 354 119 b 367 0 354 40 359 25 l 520 0 m 276 833 b 352 733 329 833 352 802 l 352 637 b 262 534 352 559 318 534 l 204 534 l 204 833 l 276 833 m 66 1181 l 193 1019 l 336 1019 l 463 1181 l 328 1181 l 264 1100 l 201 1181 l 66 1181 "},"ã":{"x_min":14.96875,"x_max":539,"ha":565,"o":"m 386 971 l 167 971 l 14 0 l 152 0 l 178 176 l 362 176 l 387 0 l 539 0 l 386 971 m 269 799 l 341 307 l 197 307 l 269 799 m 402 1176 b 343 1130 385 1139 368 1130 b 202 1167 300 1130 264 1167 b 73 1069 153 1167 118 1151 l 149 1010 b 209 1056 167 1046 183 1056 b 349 1019 251 1056 288 1019 b 479 1117 398 1019 434 1035 l 402 1176 "},"Ň":{"x_min":53.078125,"x_max":528.109375,"ha":593,"o":"m 374 0 l 528 0 l 528 972 l 394 972 l 394 390 l 240 972 l 53 972 l 53 0 l 187 0 l 187 704 l 374 0 m 92 1181 l 219 1019 l 362 1019 l 488 1181 l 353 1181 l 289 1100 l 227 1181 l 92 1181 "},"æ":{"x_min":5.4375,"x_max":751.328125,"ha":806,"o":"m 492 833 l 751 833 l 751 972 l 259 972 l 5 0 l 148 0 l 191 176 l 343 176 l 343 0 l 751 0 l 751 138 l 492 138 l 492 423 l 698 423 l 698 562 l 492 562 l 492 833 m 225 308 l 343 776 l 343 308 l 225 308 "},"ĩ":{"x_min":-73.5,"x_max":332.109375,"ha":264,"o":"m 54 0 l 204 0 l 204 971 l 54 971 l 54 0 m 255 1176 b 196 1130 238 1139 221 1130 b 55 1167 153 1130 117 1167 b -73 1069 6 1167 -28 1151 l 2 1010 b 62 1056 20 1046 36 1056 b 202 1019 104 1056 141 1019 b 332 1117 251 1019 287 1035 l 255 1176 "},"É":{"x_min":54.234375,"x_max":462.578125,"ha":511,"o":"m 203 833 l 462 833 l 462 972 l 54 972 l 54 0 l 462 0 l 462 138 l 203 138 l 203 423 l 409 423 l 409 562 l 203 562 l 203 833 m 282 1181 l 184 1019 l 291 1019 l 438 1181 l 282 1181 "},"ŀ":{"x_min":54.4375,"x_max":450.53125,"ha":474,"o":"m 54 0 l 450 0 l 450 138 l 204 138 l 204 972 l 54 972 l 54 0 m 287 559 l 287 412 l 431 412 l 431 559 l 287 559 "},"~":{"x_min":10.890625,"x_max":528.109375,"ha":550,"o":"m 81 391 b 171 470 122 451 140 470 b 366 385 228 470 292 385 b 528 505 417 385 462 406 l 457 580 b 367 501 415 520 398 501 b 172 586 310 501 246 586 b 10 461 121 586 76 559 l 81 391 "},"Ċ":{"x_min":42.1875,"x_max":488.640625,"ha":536,"o":"m 347 362 l 347 223 b 269 129 347 154 317 129 b 191 223 221 129 191 154 l 191 748 b 269 844 191 818 221 844 b 347 748 317 844 347 818 l 347 644 l 488 644 l 488 738 b 265 983 488 894 412 983 b 42 738 118 983 42 894 l 42 233 b 265 -11 42 77 118 -11 b 488 233 412 -11 488 77 l 488 362 l 347 362 m 196 1161 l 196 1019 l 334 1019 l 334 1161 l 196 1161 "},"³":{"x_min":49.078125,"x_max":332.1875,"ha":389,"o":"m 236 506 b 187 436 236 451 217 436 b 138 497 157 436 138 454 l 138 554 l 49 554 l 49 504 b 190 348 49 404 96 348 b 332 504 284 348 332 404 l 332 552 b 265 681 332 615 313 661 b 332 808 311 701 332 741 l 332 823 b 190 979 332 923 284 979 b 49 823 96 979 49 923 l 49 791 l 138 791 l 138 830 b 187 891 138 873 157 891 b 236 820 217 891 236 876 l 236 786 b 179 719 236 737 215 719 l 143 719 l 143 631 l 175 631 b 236 554 217 631 236 612 l 236 506 "},"¡":{"x_min":54.4375,"x_max":204.171875,"ha":264,"o":"m 73 756 l 54 405 l 54 0 l 204 0 l 204 405 l 185 756 l 73 756 m 201 825 l 201 972 l 57 972 l 57 825 l 201 825 "},"ẅ":{"x_min":20.421875,"x_max":745.890625,"ha":782,"o":"m 441 0 l 639 0 l 745 972 l 615 972 l 537 200 l 462 972 l 318 972 l 246 205 l 166 972 l 20 972 l 126 0 l 332 0 l 386 518 l 441 0 m 204 1161 l 204 1019 l 343 1019 l 343 1161 l 204 1161 m 421 1161 l 421 1019 l 560 1019 l 560 1161 l 421 1161 "},"ṗ":{"x_min":54.4375,"x_max":498.171875,"ha":524,"o":"m 274 972 l 54 972 l 54 0 l 204 0 l 204 365 l 274 365 b 498 605 424 365 498 450 l 498 731 b 274 972 498 887 424 972 m 274 833 b 348 741 322 833 348 811 l 348 595 b 274 504 348 526 322 504 l 204 504 l 204 833 l 274 833 m 189 1161 l 189 1019 l 328 1019 l 328 1161 l 189 1161 "},"ṁ":{"x_min":53.078125,"x_max":681.921875,"ha":751,"o":"m 261 972 l 53 972 l 53 0 l 183 0 l 183 687 l 295 0 l 436 0 l 540 697 l 540 0 l 681 0 l 681 972 l 473 972 l 371 281 l 261 972 m 298 1161 l 298 1019 l 436 1019 l 436 1161 l 298 1161 "},"[":{"x_min":63.96875,"x_max":311.6875,"ha":349,"o":"m 63 0 l 311 0 l 311 125 l 213 125 l 213 847 l 311 847 l 311 972 l 63 972 l 63 0 "},"%":{"x_min":46.28125,"x_max":807.140625,"ha":871,"o":"m 141 830 b 190 891 141 873 159 891 b 239 830 220 891 239 873 l 239 497 b 190 436 239 454 220 436 b 141 497 159 436 141 454 l 141 830 m 46 504 b 190 348 46 404 96 348 b 334 504 284 348 334 404 l 334 823 b 190 979 334 923 284 979 b 46 823 96 979 46 923 l 46 504 m 190 0 l 279 0 l 654 972 l 566 972 l 190 0 m 613 470 b 662 531 613 513 631 531 b 711 470 692 531 711 513 l 711 137 b 662 76 711 94 692 76 b 613 137 631 76 613 94 l 613 470 m 518 144 b 662 -11 518 44 568 -11 b 807 144 756 -11 807 44 l 807 463 b 662 619 807 563 756 619 b 518 463 568 619 518 563 l 518 144 "},"P":{"x_min":54.4375,"x_max":498.171875,"ha":524,"o":"m 274 972 l 54 972 l 54 0 l 204 0 l 204 365 l 274 365 b 498 605 424 365 498 450 l 498 731 b 274 972 498 887 424 972 m 274 833 b 348 741 322 833 348 811 l 348 595 b 274 504 348 526 322 504 l 204 504 l 204 833 l 274 833 "},"_":{"x_min":0,"x_max":680.5625,"ha":694,"o":"m 0 -125 l 680 -125 l 680 -13 l 0 -13 l 0 -125 "},"Ŕ":{"x_min":54.265625,"x_max":520.140625,"ha":558,"o":"m 520 0 b 503 118 505 36 503 70 l 503 268 b 404 475 503 369 479 443 b 502 672 471 506 502 572 l 502 748 b 280 972 502 898 435 972 l 54 972 l 54 0 l 204 0 l 204 395 l 255 395 b 354 272 324 395 354 362 l 354 119 b 367 0 354 40 359 25 l 520 0 m 276 833 b 352 733 329 833 352 802 l 352 637 b 262 534 352 559 318 534 l 204 534 l 204 833 l 276 833 m 291 1181 l 193 1019 l 299 1019 l 446 1181 l 291 1181 "},"ñ":{"x_min":53.0625,"x_max":528.09375,"ha":593,"o":"m 374 0 l 528 0 l 528 971 l 394 971 l 394 389 l 240 971 l 53 971 l 53 0 l 187 0 l 187 703 l 374 0 m 416 1176 b 356 1130 398 1139 382 1130 b 216 1167 314 1130 277 1167 b 87 1069 167 1167 132 1151 l 163 1010 b 223 1056 181 1046 197 1056 b 363 1019 265 1056 302 1019 b 492 1117 412 1019 447 1035 l 416 1176 "},"‚":{"x_min":53.96875,"x_max":198.171875,"ha":258,"o":"m 111 0 l 71 -138 l 132 -138 l 198 15 l 198 147 l 53 147 l 53 0 l 111 0 "},"Æ":{"x_min":5.4375,"x_max":751.328125,"ha":806,"o":"m 343 0 l 751 0 l 751 138 l 492 138 l 492 423 l 698 423 l 698 562 l 492 562 l 492 833 l 751 833 l 751 972 l 259 972 l 5 0 l 148 0 l 191 176 l 343 176 l 343 0 m 225 308 l 343 776 l 343 308 l 225 308 "},"ğ":{"x_min":42.1875,"x_max":488.640625,"ha":542,"o":"m 279 402 l 347 402 l 347 223 b 269 129 347 154 317 129 b 191 223 221 129 191 154 l 191 748 b 269 844 191 818 221 844 b 347 748 317 844 347 818 l 347 644 l 488 644 l 488 738 b 265 983 488 894 412 983 b 42 738 118 983 42 894 l 42 233 b 265 -11 42 77 118 -11 b 488 233 412 -11 488 77 l 488 541 l 279 541 l 279 402 m 330 1181 b 262 1113 326 1126 303 1113 b 197 1181 223 1113 201 1126 l 103 1181 b 262 1013 104 1079 155 1013 b 424 1181 370 1013 424 1079 l 330 1181 "},"Ū":{"x_min":47.640625,"x_max":494.078125,"ha":553,"o":"m 47 972 l 47 231 b 270 -12 47 76 123 -12 b 494 231 417 -12 494 76 l 494 972 l 352 972 l 352 222 b 274 127 352 152 322 127 b 197 222 227 127 197 152 l 197 972 l 47 972 m 107 1140 l 107 1026 l 436 1026 l 436 1140 l 107 1140 "},"ª":{"x_min":40.828125,"x_max":329.390625,"ha":386,"o":"m 40 601 l 40 596 b 147 456 40 504 76 456 b 243 529 196 456 228 481 l 249 463 l 329 463 l 329 825 b 200 979 329 922 291 979 b 59 825 106 979 59 922 l 59 799 l 149 799 l 149 831 b 196 890 149 875 166 890 b 234 839 221 890 234 875 l 234 775 b 40 601 121 771 40 733 m 40 399 l 40 303 l 329 303 l 329 399 l 40 399 m 136 617 b 234 703 136 654 149 699 l 234 594 b 185 544 231 557 213 544 b 136 604 155 544 136 560 l 136 617 "},"Œ":{"x_min":40.828125,"x_max":759.5,"ha":814,"o":"m 500 833 l 759 833 l 759 972 l 264 972 b 40 731 114 972 40 887 l 40 240 b 264 0 40 84 114 0 l 759 0 l 759 138 l 500 138 l 500 423 l 706 423 l 706 562 l 500 562 l 500 833 m 351 138 l 266 138 b 190 233 219 138 190 163 l 190 738 b 266 833 190 808 219 833 l 351 833 l 351 138 "},"Ą":{"x_min":14.90625,"x_max":538.796875,"ha":565,"o":"m 386 972 l 167 972 l 14 0 l 152 0 l 178 176 l 361 176 l 387 1 b 327 -104 344 -30 327 -70 b 446 -190 327 -161 374 -190 b 538 -175 484 -190 507 -187 l 538 -97 b 489 -105 523 -101 517 -105 b 442 -66 465 -105 442 -93 b 474 0 442 -48 447 -25 l 538 0 l 386 972 m 269 800 l 341 308 l 197 308 l 269 800 "},"ṡ":{"x_min":31.3125,"x_max":477.75,"ha":519,"o":"m 35 738 b 328 223 35 461 328 423 b 250 129 328 154 298 129 b 172 223 202 129 172 154 l 172 300 l 31 300 l 31 233 b 254 -11 31 77 107 -11 b 477 233 401 -11 477 77 b 185 748 477 511 185 548 b 259 844 185 818 212 844 b 334 748 307 844 334 818 l 334 701 l 476 701 l 476 738 b 255 983 476 894 401 983 b 35 738 110 983 35 894 m 185 1161 l 185 1019 l 323 1019 l 323 1161 l 185 1161 "},"T":{"x_min":13.609375,"x_max":476.390625,"ha":500,"o":"m 13 833 l 170 833 l 170 0 l 319 0 l 319 833 l 476 833 l 476 972 l 13 972 l 13 833 "},"š":{"x_min":30.953125,"x_max":477.953125,"ha":519,"o":"m 35 738 b 328 223 35 461 328 423 b 250 129 328 154 298 129 b 172 223 202 129 172 154 l 172 300 l 30 300 l 30 233 b 254 -11 30 77 107 -11 b 477 233 401 -11 477 77 b 184 748 477 511 184 548 b 259 844 184 818 212 844 b 334 748 307 844 334 818 l 334 701 l 476 701 l 476 738 b 255 983 476 894 401 983 b 35 738 109 983 35 894 m 55 1181 l 182 1019 l 325 1019 l 452 1181 l 317 1181 l 253 1100 l 190 1181 l 55 1181 "},"Þ":{"x_min":54.4375,"x_max":498.171875,"ha":524,"o":"m 54 0 l 204 0 l 204 254 l 274 254 b 498 494 424 254 498 338 l 498 620 b 274 861 498 776 424 861 l 204 861 l 204 972 l 54 972 l 54 0 m 274 722 b 348 630 322 722 348 700 l 348 484 b 274 393 348 415 322 393 l 204 393 l 204 722 l 274 722 "},"j":{"x_min":13.609375,"x_max":300.8125,"ha":356,"o":"m 13 0 b 85 -2 38 -2 58 -2 b 300 241 198 -2 300 47 l 300 972 l 151 972 l 151 230 b 65 137 151 155 112 137 b 13 138 49 137 29 137 l 13 0 "},"1":{"x_min":147,"x_max":412.421875,"ha":550,"o":"m 147 741 l 262 741 l 262 0 l 412 0 l 412 972 l 311 972 b 147 850 288 906 262 850 l 147 741 "},"›":{"x_min":21.78125,"x_max":245,"ha":272,"o":"m 21 856 l 102 487 l 21 95 l 163 95 l 245 487 l 163 856 l 21 856 "},"<":{"x_min":40.828125,"x_max":484.5625,"ha":550,"o":"m 484 265 l 484 374 l 179 486 l 484 597 l 484 707 l 40 540 l 40 431 l 484 265 "},"t":{"x_min":13.609375,"x_max":476.390625,"ha":500,"o":"m 13 833 l 170 833 l 170 0 l 319 0 l 319 833 l 476 833 l 476 972 l 13 972 l 13 833 "},"¬":{"x_min":34.03125,"x_max":504.96875,"ha":550,"o":"m 34 540 l 34 431 l 398 431 l 398 241 l 504 241 l 504 540 l 34 540 "},"ù":{"x_min":48.078125,"x_max":494.515625,"ha":553,"o":"m 48 972 l 48 231 b 271 -12 48 76 124 -12 b 494 231 418 -12 494 76 l 494 972 l 352 972 l 352 222 b 275 127 352 152 323 127 b 197 222 227 127 197 152 l 197 972 l 48 972 m 87 1181 l 234 1019 l 347 1019 l 249 1181 l 87 1181 "},"ĉ":{"x_min":42.484375,"x_max":488.921875,"ha":536,"o":"m 347 362 l 347 223 b 269 128 347 153 317 128 b 192 223 222 128 192 153 l 192 748 b 269 844 192 817 222 844 b 347 748 317 844 347 817 l 347 644 l 488 644 l 488 738 b 265 983 488 894 412 983 b 42 738 118 983 42 894 l 42 233 b 265 -11 42 77 118 -11 b 488 233 412 -11 488 77 l 488 362 l 347 362 m 201 1019 l 264 1099 l 328 1019 l 463 1019 l 336 1181 l 193 1181 l 66 1019 l 201 1019 "},"ï":{"x_min":-49,"x_max":307.609375,"ha":264,"o":"m 54 0 l 204 0 l 204 972 l 54 972 l 54 0 m -49 1161 l -49 1019 l 89 1019 l 89 1161 l -49 1161 m 168 1161 l 168 1019 l 307 1019 l 307 1161 l 168 1161 "},"ī":{"x_min":-35.390625,"x_max":294,"ha":264,"o":"m 54 0 l 204 0 l 204 972 l 54 972 l 54 0 m -35 1140 l -35 1026 l 294 1026 l 294 1140 l -35 1140 "},"Ò":{"x_min":42.078125,"x_max":496.6875,"ha":550,"o":"m 191 748 b 269 844 191 818 221 844 b 346 748 317 844 346 818 l 346 223 b 269 127 346 154 317 127 b 191 223 221 127 191 154 l 191 748 m 42 233 b 269 -11 42 77 122 -11 b 496 233 416 -11 496 77 l 496 738 b 269 983 496 894 416 983 b 42 738 122 983 42 894 l 42 233 m 84 1181 l 231 1019 l 344 1019 l 246 1181 l 84 1181 "},"Ṫ":{"x_min":13.609375,"x_max":476.390625,"ha":500,"o":"m 13 833 l 170 833 l 170 0 l 319 0 l 319 833 l 476 833 l 476 972 l 13 972 l 13 833 m 175 1161 l 175 1019 l 314 1019 l 314 1161 l 175 1161 "},"Ď":{"x_min":54.015625,"x_max":514.90625,"ha":567,"o":"m 54 0 l 291 0 b 514 240 441 0 514 84 l 514 731 b 291 972 514 887 441 972 l 54 972 l 54 0 m 288 833 b 364 738 336 833 364 808 l 364 233 b 288 138 364 163 336 138 l 204 138 l 204 833 l 288 833 m 66 1181 l 193 1019 l 336 1019 l 463 1181 l 328 1181 l 264 1100 l 201 1181 l 66 1181 "},"&":{"x_min":56.203125,"x_max":550.28125,"ha":575,"o":"m 56 309 l 56 211 b 222 -10 56 68 112 -10 b 361 76 288 -10 335 19 b 374 0 363 33 367 19 l 527 0 b 510 118 512 36 510 71 l 510 437 l 550 437 l 550 576 l 510 576 l 510 684 l 361 684 l 361 576 l 295 576 b 205 679 239 576 205 601 l 205 739 b 282 833 205 808 234 833 l 450 833 l 450 972 l 279 972 b 56 732 129 972 56 887 l 56 714 b 159 514 56 609 88 544 b 56 309 86 480 56 408 m 205 223 l 205 314 b 303 437 205 404 235 437 l 361 437 l 361 212 b 283 127 358 151 328 127 b 205 223 235 127 205 154 "},"˝":{"x_min":-29.9375,"x_max":371.578125,"ha":347,"o":"m 40 1181 l -29 1019 l 65 1019 l 185 1181 l 40 1181 m 227 1181 l 156 1019 l 251 1019 l 371 1181 l 227 1181 "},"I":{"x_min":54.4375,"x_max":204.171875,"ha":264,"o":"m 54 0 l 204 0 l 204 972 l 54 972 l 54 0 "},"G":{"x_min":42.1875,"x_max":488.640625,"ha":542,"o":"m 279 402 l 347 402 l 347 223 b 269 129 347 154 317 129 b 191 223 221 129 191 154 l 191 748 b 269 844 191 818 221 844 b 347 748 317 844 347 818 l 347 644 l 488 644 l 488 738 b 265 983 488 894 412 983 b 42 738 118 983 42 894 l 42 233 b 265 -11 42 77 118 -11 b 488 233 412 -11 488 77 l 488 541 l 279 541 l 279 402 "},"`":{"x_min":39.46875,"x_max":299.4375,"ha":347,"o":"m 39 1181 l 186 1019 l 299 1019 l 201 1181 l 39 1181 "},"·":{"x_min":54.4375,"x_max":198.71875,"ha":258,"o":"m 54 559 l 54 412 l 198 412 l 198 559 l 54 559 "},"ŏ":{"x_min":42.1875,"x_max":496.8125,"ha":550,"o":"m 191 748 b 269 844 191 818 221 844 b 347 748 317 844 347 818 l 347 223 b 269 127 347 154 317 127 b 191 223 221 127 191 154 l 191 748 m 42 233 b 269 -11 42 77 122 -11 b 496 233 416 -11 496 77 l 496 738 b 269 983 496 894 416 983 b 42 738 122 983 42 894 l 42 233 m 336 1181 b 268 1113 332 1126 308 1113 b 202 1181 228 1113 206 1126 l 108 1181 b 268 1013 110 1079 160 1013 b 430 1181 375 1013 430 1079 l 336 1181 "},"¿":{"x_min":21.78125,"x_max":462.78125,"ha":500,"o":"m 193 756 b 198 702 197 738 198 720 b 21 233 198 525 21 486 b 242 -11 21 77 96 -11 b 462 233 387 -11 462 77 l 462 329 l 321 329 l 321 223 b 246 127 321 154 294 127 b 171 223 198 127 171 154 b 334 697 171 465 334 484 b 326 756 334 722 332 740 l 193 756 m 333 825 l 333 972 l 189 972 l 189 825 l 333 825 "},"ý":{"x_min":5.828125,"x_max":533.9375,"ha":550,"o":"m 195 0 l 344 0 l 344 322 l 533 972 l 391 972 l 276 529 l 162 972 l 5 972 l 195 322 l 195 0 m 301 1181 l 203 1019 l 309 1019 l 456 1181 l 301 1181 "},"º":{"x_min":46.28125,"x_max":334.828125,"ha":389,"o":"m 141 830 b 190 890 141 875 159 890 b 239 830 220 890 239 875 l 239 604 b 190 544 239 559 220 544 b 141 604 159 544 141 559 l 141 830 m 46 609 b 190 455 46 512 96 455 b 334 609 284 455 334 512 l 334 825 b 190 979 334 922 284 979 b 46 825 96 979 46 922 l 46 609 m 46 398 l 46 302 l 334 302 l 334 398 l 46 398 "},"∞":{"x_min":-0.015625,"x_max":998.984375,"ha":1018,"o":"m 469 439 b 526 478 500 439 518 478 b 549 473 528 478 539 473 b 601 536 580 473 601 506 b 595 560 601 546 599 553 b 617 513 613 558 617 529 l 617 479 b 625 470 617 474 620 470 b 685 412 656 470 683 439 b 512 439 672 428 603 439 b 471 434 500 439 485 434 b 439 435 458 434 452 435 b 288 398 372 435 288 416 b 326 381 288 385 318 381 b 359 376 336 381 346 376 b 482 392 386 376 429 392 b 632 383 588 392 580 383 b 667 395 647 383 662 395 b 687 404 670 395 683 398 b 666 356 685 369 681 366 b 663 352 663 355 663 352 b 667 349 663 350 666 349 b 685 360 672 349 683 357 b 601 198 677 298 651 243 l 700 198 b 734 489 713 273 734 381 b 475 841 734 667 683 841 b 236 511 288 841 236 681 b 284 198 236 392 264 266 l 359 198 b 294 342 326 232 304 285 b 310 335 295 341 305 335 b 314 341 313 335 314 337 b 284 388 314 341 284 376 b 310 444 284 409 284 428 b 365 551 351 474 341 527 b 355 503 359 540 355 520 b 383 469 355 488 368 469 b 417 474 398 469 408 474 b 469 439 429 474 440 439 m 998 404 b 807 603 947 513 840 596 b 456 990 781 803 712 990 b 153 592 258 990 161 779 b 0 404 125 560 33 488 l 0 198 b 161 453 32 253 110 424 b 187 198 161 364 164 281 l 251 198 b 212 489 231 260 212 371 b 470 916 212 696 269 916 b 760 474 707 916 760 689 b 738 198 760 369 749 270 l 796 198 b 817 376 807 259 817 309 b 813 444 817 403 814 424 b 998 198 852 444 964 274 l 998 404 m 469 697 b 402 674 448 683 424 674 b 336 696 359 674 337 696 b 332 690 334 696 332 694 b 340 680 332 689 336 683 b 284 626 336 660 307 639 b 477 790 306 717 372 790 b 666 679 590 790 641 747 b 595 694 641 689 611 694 b 606 705 596 696 606 703 b 601 708 606 707 603 708 b 526 685 596 708 575 685 b 467 708 488 685 471 708 b 465 705 466 708 465 707 b 469 697 465 703 467 698 m 504 596 l 504 576 b 514 558 504 570 505 558 b 549 576 526 558 531 576 b 579 540 569 576 579 557 b 543 492 579 517 562 492 b 518 502 537 492 526 502 b 467 473 508 502 500 473 b 424 510 443 473 432 510 b 387 492 414 510 413 492 b 372 511 378 493 372 502 b 412 560 372 536 387 560 b 440 551 424 560 432 551 b 485 660 455 551 461 660 b 504 596 494 660 504 611 m 689 550 b 693 441 690 514 693 480 b 636 499 678 482 636 488 b 590 570 636 518 630 570 b 548 589 579 582 565 589 b 527 586 542 589 537 589 b 500 665 518 586 520 635 b 520 660 505 662 514 661 b 518 647 520 655 518 650 b 590 589 518 615 552 589 b 670 649 626 589 670 606 l 677 644 b 689 550 683 618 685 582 m 520 430 b 659 406 575 430 659 416 b 632 394 659 404 645 394 b 482 404 591 394 531 404 b 349 385 439 404 410 385 b 322 400 341 385 322 385 b 437 428 322 406 393 428 b 470 424 447 428 458 424 b 520 430 485 424 518 430 m 363 572 b 447 657 412 572 446 615 l 465 662 b 418 578 432 622 435 578 b 387 571 408 578 397 575 b 336 514 355 567 340 546 b 279 441 330 478 298 470 b 275 549 275 480 275 513 b 280 608 275 567 275 586 b 300 615 285 610 294 611 b 363 572 303 596 328 572 m 569 644 b 595 674 586 644 592 661 b 653 650 617 674 653 665 b 594 608 653 625 617 608 b 531 642 568 608 531 621 b 548 662 531 647 537 662 b 569 644 549 655 554 644 m 363 592 b 318 625 342 592 322 603 b 343 642 328 631 336 635 b 363 635 349 635 356 635 b 387 654 372 635 383 642 b 412 653 397 653 403 653 l 424 653 b 425 640 425 649 425 644 b 363 592 425 615 387 592 m 361 400 b 507 412 408 409 456 412 b 626 405 548 412 588 410 b 630 409 627 405 630 406 b 504 420 630 417 531 420 b 359 404 471 420 359 416 b 361 400 359 401 360 400 m 414 363 b 420 357 414 359 417 357 b 450 366 428 357 439 366 b 512 367 465 366 486 367 b 539 362 523 367 528 362 b 542 366 542 362 542 363 b 500 377 542 377 501 377 b 414 363 482 377 414 376 m 566 655 b 557 665 561 655 557 658 b 579 674 564 668 572 674 b 579 669 579 674 579 671 b 566 655 579 661 573 655 m 361 646 b 352 650 357 646 353 647 b 360 664 357 655 360 661 b 375 658 365 661 369 660 b 361 646 372 650 367 646 m 439 45 l 458 45 l 478 112 l 467 -1 l 496 -1 l 514 172 l 478 172 l 452 88 l 446 172 l 412 172 l 393 -1 l 421 -1 l 432 112 l 439 45 m 88 29 l 100 143 b 76 172 101 162 92 172 l 25 172 l 9 -1 l 59 -1 b 88 29 76 -1 86 8 m 380 59 l 388 143 b 364 172 390 162 380 172 l 314 172 l 296 -1 l 328 -1 l 332 30 l 340 30 l 349 -1 l 378 -1 l 367 36 b 380 59 374 40 379 48 m 247 -1 l 279 -1 l 294 143 b 269 172 295 162 285 172 l 246 172 b 216 143 230 172 217 162 l 201 -1 l 229 -1 l 234 30 l 253 30 l 247 -1 m 562 -1 l 591 -1 l 609 143 b 581 172 610 162 598 172 l 561 172 b 528 143 545 172 530 162 l 514 -1 l 545 -1 l 549 30 l 566 30 l 562 -1 m 803 -1 l 835 -1 l 839 30 l 858 30 b 891 59 875 30 890 40 l 899 143 b 872 172 900 162 891 172 l 824 172 l 803 -1 m 152 -1 l 182 -1 l 201 172 l 169 172 l 157 56 l 139 56 l 152 172 l 123 172 l 103 -1 l 134 -1 l 138 30 l 156 30 l 152 -1 m 724 172 l 713 59 b 734 30 712 41 720 31 l 721 -1 l 753 -1 l 765 30 b 792 59 779 31 790 41 l 803 172 l 774 172 l 763 62 b 756 56 763 58 760 56 l 749 56 b 743 62 743 56 743 58 l 756 172 l 724 172 m 691 146 l 709 146 l 712 172 l 645 172 l 642 146 l 660 146 l 645 -1 l 677 -1 l 691 146 m 70 140 l 59 29 b 55 23 59 26 58 23 l 40 23 l 54 146 l 66 146 b 70 140 70 146 72 144 m 866 140 l 860 62 b 853 56 860 58 857 56 l 841 56 l 850 146 l 862 146 b 866 140 866 146 868 144 m 235 56 l 243 140 b 251 146 243 144 246 146 l 260 146 b 264 140 264 146 264 144 l 254 56 l 235 56 m 359 140 l 352 62 b 345 56 352 58 349 56 l 333 56 l 343 146 l 355 146 b 359 140 359 146 359 144 m 550 56 l 558 140 b 565 146 558 144 561 146 l 572 146 b 576 140 576 146 576 144 l 568 56 l 550 56 m 969 77 l 939 77 l 945 146 l 984 146 l 986 172 l 920 172 l 902 -1 l 969 -1 l 971 23 l 933 23 l 936 52 l 966 52 l 969 77 "},"ź":{"x_min":31.3125,"x_max":469.578125,"ha":514,"o":"m 44 972 l 44 833 l 315 833 l 31 136 l 31 0 l 469 0 l 469 138 l 185 138 l 469 836 l 469 972 l 44 972 m 279 1181 l 181 1019 l 287 1019 l 434 1181 l 279 1181 "},"ű":{"x_min":48.125,"x_max":520.4375,"ha":553,"o":"m 48 972 l 48 231 b 271 -12 48 76 124 -12 b 494 231 418 -12 494 76 l 494 972 l 353 972 l 353 222 b 275 127 353 152 323 127 b 197 222 227 127 197 152 l 197 972 l 48 972 m 189 1181 l 118 1019 l 214 1019 l 333 1181 l 189 1181 m 376 1181 l 305 1019 l 400 1019 l 520 1181 l 376 1181 "},"Ǽ":{"x_min":5.4375,"x_max":751.328125,"ha":806,"o":"m 343 0 l 751 0 l 751 138 l 492 138 l 492 423 l 698 423 l 698 562 l 492 562 l 492 833 l 751 833 l 751 972 l 259 972 l 5 0 l 148 0 l 191 176 l 343 176 l 343 0 m 225 308 l 343 776 l 343 308 l 225 308 m 420 1181 l 322 1019 l 428 1019 l 575 1181 l 420 1181 "},"ń":{"x_min":53.078125,"x_max":528.109375,"ha":593,"o":"m 374 0 l 528 0 l 528 972 l 394 972 l 394 390 l 240 972 l 53 972 l 53 0 l 187 0 l 187 704 l 374 0 m 315 1181 l 217 1019 l 323 1019 l 470 1181 l 315 1181 "},"Ș":{"x_min":31.296875,"x_max":477.796875,"ha":519,"o":"m 235 -188 l 195 -272 l 254 -272 l 319 -173 l 319 -47 l 181 -47 l 181 -188 l 235 -188 m 35 738 b 328 223 35 461 328 423 b 250 129 328 154 298 129 b 172 223 202 129 172 154 l 172 300 l 31 300 l 31 233 b 254 -11 31 77 107 -11 b 477 233 401 -11 477 77 b 185 748 477 511 185 548 b 260 844 185 818 212 844 b 334 748 307 844 334 818 l 334 701 l 476 701 l 476 738 b 255 983 476 894 401 983 b 35 738 110 983 35 894 "},";":{"x_min":53.96875,"x_max":198.171875,"ha":258,"o":"m 111 0 l 71 -138 l 132 -138 l 198 15 l 198 147 l 53 147 l 53 0 l 111 0 m 53 676 l 53 529 l 198 529 l 198 676 l 53 676 "},"Ġ":{"x_min":42.1875,"x_max":488.640625,"ha":542,"o":"m 279 402 l 347 402 l 347 223 b 269 129 347 154 317 129 b 191 223 221 129 191 154 l 191 748 b 269 844 191 818 221 844 b 347 748 317 844 347 818 l 347 644 l 488 644 l 488 738 b 265 983 488 894 412 983 b 42 738 118 983 42 894 l 42 233 b 265 -11 42 77 118 -11 b 488 233 412 -11 488 77 l 488 541 l 279 541 l 279 402 m 194 1161 l 194 1019 l 333 1019 l 333 1161 l 194 1161 "},"6":{"x_min":44.921875,"x_max":499.53125,"ha":550,"o":"m 44 232 b 272 -11 44 77 125 -11 b 499 232 419 -11 499 77 l 499 410 b 333 632 499 553 443 632 b 194 546 266 632 220 602 l 194 724 b 277 844 194 817 224 844 b 355 748 325 844 355 817 l 355 713 l 496 713 l 496 738 b 273 982 496 894 420 982 b 44 730 118 982 44 894 l 44 232 m 272 494 b 349 398 319 494 349 467 l 349 223 b 272 128 349 153 319 128 b 194 223 224 128 194 153 l 194 398 b 272 494 194 467 224 494 "},"n":{"x_min":53.078125,"x_max":528.109375,"ha":593,"o":"m 374 0 l 528 0 l 528 972 l 394 972 l 394 390 l 240 972 l 53 972 l 53 0 l 187 0 l 187 704 l 374 0 "},"ģ":{"x_min":42.203125,"x_max":488.703125,"ha":542,"o":"m 279 402 l 347 402 l 347 223 b 269 129 347 154 317 129 b 191 223 221 129 191 154 l 191 748 b 269 844 191 818 221 844 b 347 748 317 844 347 818 l 347 644 l 488 644 l 488 738 b 265 983 488 894 412 983 b 42 738 118 983 42 894 l 42 233 b 265 -11 42 77 118 -11 b 488 233 412 -11 488 77 l 488 541 l 279 541 l 279 402 m 250 -188 l 210 -272 l 269 -272 l 334 -173 l 334 -47 l 196 -47 l 196 -188 l 250 -188 "},"℗":{"x_min":27.21875,"x_max":974.5625,"ha":1022,"o":"m 27 486 b 500 -11 27 197 231 -11 b 974 486 770 -11 974 197 b 500 983 974 775 770 983 b 27 486 231 983 27 775 m 125 486 b 500 886 125 718 285 886 b 876 486 715 886 876 718 b 500 86 876 254 715 86 b 125 486 285 86 125 254 m 374 176 l 477 176 l 477 381 l 532 381 b 686 537 638 381 686 433 l 686 615 b 532 770 686 719 638 770 l 374 770 l 374 176 m 582 550 b 526 479 582 501 566 479 l 477 479 l 477 673 l 526 673 b 582 602 566 673 582 651 l 582 550 "},"Ĝ":{"x_min":42.515625,"x_max":488.953125,"ha":542,"o":"m 279 402 l 347 402 l 347 223 b 269 128 347 153 317 128 b 192 223 222 128 192 153 l 192 748 b 269 844 192 817 222 844 b 347 748 317 844 347 817 l 347 644 l 488 644 l 488 738 b 265 983 488 894 412 983 b 42 738 118 983 42 894 l 42 233 b 265 -11 42 77 118 -11 b 488 233 412 -11 488 77 l 488 541 l 279 541 l 279 402 m 201 1019 l 264 1099 l 328 1019 l 463 1019 l 336 1181 l 193 1181 l 67 1019 l 201 1019 "},"p":{"x_min":54.4375,"x_max":498.171875,"ha":524,"o":"m 274 972 l 54 972 l 54 0 l 204 0 l 204 365 l 274 365 b 498 605 424 365 498 450 l 498 731 b 274 972 498 887 424 972 m 274 833 b 348 741 322 833 348 811 l 348 595 b 274 504 348 526 322 504 l 204 504 l 204 833 l 274 833 "},"‡":{"x_min":34.03125,"x_max":504.96875,"ha":550,"o":"m 34 611 l 208 611 l 208 270 l 34 270 l 34 152 l 208 152 l 208 -90 l 330 -90 l 330 152 l 504 152 l 504 270 l 330 270 l 330 611 l 504 611 l 504 729 l 330 729 l 330 972 l 208 972 l 208 729 l 34 729 l 34 611 "},"ň":{"x_min":53.59375,"x_max":528.6875,"ha":593,"o":"m 374 0 l 528 0 l 528 972 l 395 972 l 395 390 l 241 972 l 53 972 l 53 0 l 188 0 l 188 704 l 374 0 m 275 -188 l 235 -272 l 294 -272 l 359 -173 l 359 -47 l 221 -47 l 221 -188 l 275 -188 "},"⁴":{"x_min":32.671875,"x_max":353.890625,"ha":389,"o":"m 32 466 l 215 466 l 215 355 l 308 355 l 308 466 l 353 466 l 353 555 l 308 555 l 308 972 l 205 972 l 32 555 l 32 466 m 118 555 l 215 783 l 215 555 l 118 555 "},"ę":{"x_min":53.640625,"x_max":461.96875,"ha":511,"o":"m 203 833 l 461 833 l 461 972 l 53 972 l 53 0 l 321 0 b 251 -104 265 -31 251 -72 b 369 -190 251 -161 297 -190 b 461 -175 407 -190 430 -187 l 461 -97 b 412 -105 447 -101 440 -105 b 365 -66 388 -105 365 -93 b 398 0 365 -48 370 -25 l 461 0 l 461 138 l 203 138 l 203 423 l 408 423 l 408 562 l 203 562 l 203 833 "},"S":{"x_min":31.3125,"x_max":477.75,"ha":519,"o":"m 35 738 b 328 223 35 461 328 423 b 250 129 328 154 298 129 b 172 223 202 129 172 154 l 172 300 l 31 300 l 31 233 b 254 -11 31 77 107 -11 b 477 233 401 -11 477 77 b 185 748 477 511 185 548 b 259 844 185 818 212 844 b 334 748 307 844 334 818 l 334 701 l 476 701 l 476 738 b 255 983 476 894 401 983 b 35 738 110 983 35 894 "},"/":{"x_min":6.8125,"x_max":511.78125,"ha":529,"o":"m 6 0 l 136 0 l 511 972 l 382 972 l 6 0 "},"į":{"x_min":22.375,"x_max":233.359375,"ha":264,"o":"m 55 0 l 79 0 b 22 -104 37 -31 22 -72 b 140 -190 22 -161 68 -190 b 233 -175 178 -190 202 -187 l 233 -97 b 184 -105 218 -101 211 -105 b 136 -66 159 -105 136 -93 b 169 0 136 -48 142 -25 l 204 0 l 204 972 l 55 972 l 55 0 "},"ṫ":{"x_min":13.609375,"x_max":476.390625,"ha":500,"o":"m 13 833 l 170 833 l 170 0 l 319 0 l 319 833 l 476 833 l 476 972 l 13 972 l 13 833 m 175 1161 l 175 1019 l 314 1019 l 314 1161 l 175 1161 "},"Ŧ":{"x_min":13.609375,"x_max":476.390625,"ha":500,"o":"m 80 676 l 80 562 l 170 562 l 170 0 l 319 0 l 319 562 l 409 562 l 409 676 l 319 676 l 319 833 l 476 833 l 476 972 l 13 972 l 13 833 l 170 833 l 170 676 l 80 676 "},"y":{"x_min":5.4375,"x_max":533.5625,"ha":550,"o":"m 194 0 l 344 0 l 344 322 l 533 972 l 390 972 l 276 529 l 161 972 l 5 972 l 194 322 l 194 0 "},"≈":{"x_min":10.890625,"x_max":528.109375,"ha":550,"o":"m 81 276 b 171 355 122 336 140 355 b 366 270 228 355 292 270 b 528 390 417 270 462 291 l 457 465 b 367 386 415 405 398 386 b 172 470 310 386 246 470 b 10 346 121 470 76 444 l 81 276 m 81 506 b 171 585 122 566 140 585 b 366 501 228 585 292 501 b 528 620 417 501 462 521 l 457 695 b 367 616 415 635 398 616 b 172 701 310 616 246 701 b 10 576 121 701 76 674 l 81 506 "},"ǿ":{"x_min":42.03125,"x_max":496.96875,"ha":550,"o":"m 42 233 b 89 64 42 162 58 105 l 55 -33 l 106 -51 l 133 23 b 269 -10 168 0 215 -10 b 496 233 416 -10 496 77 l 496 738 b 447 906 496 809 480 866 l 483 1005 l 432 1023 l 405 946 b 269 982 370 970 323 982 b 42 738 122 982 42 894 l 42 233 m 191 748 b 269 844 191 817 221 844 b 344 777 308 844 337 824 l 191 348 l 191 748 m 269 127 b 193 194 228 127 201 145 l 347 623 l 347 223 b 269 127 347 154 317 127 m 295 1181 l 197 1019 l 303 1019 l 450 1181 l 295 1181 "},"g":{"x_min":42.1875,"x_max":488.640625,"ha":542,"o":"m 279 402 l 347 402 l 347 223 b 269 129 347 154 317 129 b 191 223 221 129 191 154 l 191 748 b 269 844 191 818 221 844 b 347 748 317 844 347 818 l 347 644 l 488 644 l 488 738 b 265 983 488 894 412 983 b 42 738 118 983 42 894 l 42 233 b 265 -11 42 77 118 -11 b 488 233 412 -11 488 77 l 488 541 l 279 541 l 279 402 "},"ĸ":{"x_min":54.4375,"x_max":549.890625,"ha":575,"o":"m 396 0 l 549 0 l 341 538 l 549 972 l 402 972 l 204 548 l 204 972 l 54 972 l 54 0 l 204 0 l 204 298 l 250 387 l 396 0 "},"²":{"x_min":57.140625,"x_max":340.25,"ha":389,"o":"m 244 825 b 57 434 244 645 57 615 l 57 359 l 332 359 l 332 447 l 152 447 b 340 827 133 555 340 625 b 198 981 340 926 292 981 b 57 827 104 981 57 926 l 57 768 l 146 768 l 146 833 b 195 894 146 877 166 894 b 244 825 225 894 244 879 "},"–":{"x_min":0,"x_max":680.5625,"ha":694,"o":"m 0 423 l 680 423 l 680 548 l 0 548 l 0 423 "},"ë":{"x_min":54.4375,"x_max":462.78125,"ha":511,"o":"m 204 833 l 462 833 l 462 972 l 54 972 l 54 0 l 462 0 l 462 138 l 204 138 l 204 423 l 409 423 l 409 562 l 204 562 l 204 833 m 78 1161 l 78 1019 l 217 1019 l 217 1161 l 78 1161 m 296 1161 l 296 1019 l 435 1019 l 435 1161 l 296 1161 "},"J":{"x_min":13.609375,"x_max":300.8125,"ha":356,"o":"m 13 0 b 85 -2 38 -2 58 -2 b 300 241 198 -2 300 47 l 300 972 l 151 972 l 151 230 b 65 137 151 155 112 137 b 13 138 49 137 29 137 l 13 0 "},"Ã":{"x_min":14.96875,"x_max":539,"ha":565,"o":"m 386 971 l 167 971 l 14 0 l 152 0 l 178 176 l 362 176 l 387 0 l 539 0 l 386 971 m 269 799 l 341 307 l 197 307 l 269 799 m 402 1176 b 343 1130 385 1139 368 1130 b 202 1167 300 1130 264 1167 b 73 1069 153 1167 118 1151 l 149 1010 b 209 1056 167 1046 183 1056 b 349 1019 251 1056 288 1019 b 479 1117 398 1019 434 1035 l 402 1176 "},"ŷ":{"x_min":5.4375,"x_max":533.5625,"ha":550,"o":"m 194 0 l 344 0 l 344 322 l 533 972 l 390 972 l 276 528 l 161 972 l 5 972 l 194 322 l 194 0 m 212 1019 l 274 1099 l 338 1019 l 473 1019 l 347 1181 l 204 1181 l 77 1019 l 212 1019 "},"ŕ":{"x_min":54.265625,"x_max":520.140625,"ha":558,"o":"m 520 0 b 503 118 505 36 503 70 l 503 268 b 404 475 503 369 479 443 b 502 672 471 506 502 572 l 502 748 b 280 972 502 898 435 972 l 54 972 l 54 0 l 204 0 l 204 395 l 255 395 b 354 272 324 395 354 362 l 354 119 b 367 0 354 40 359 25 l 520 0 m 276 833 b 352 733 329 833 352 802 l 352 637 b 262 534 352 559 318 534 l 204 534 l 204 833 l 276 833 m 291 1181 l 193 1019 l 299 1019 l 446 1181 l 291 1181 "},"©":{"x_min":27.21875,"x_max":974.5625,"ha":1022,"o":"m 551 427 l 551 344 b 498 279 551 295 530 279 b 445 344 465 279 445 295 l 445 627 b 498 694 445 676 465 694 b 551 627 530 694 551 676 l 551 569 l 649 569 l 649 619 b 495 791 649 730 597 791 b 341 619 393 791 341 730 l 341 350 b 495 180 341 241 393 180 b 649 350 597 180 649 241 l 649 427 l 551 427 m 27 486 b 500 -11 27 197 231 -11 b 974 486 770 -11 974 197 b 500 983 974 775 770 983 b 27 486 231 983 27 775 m 125 486 b 500 886 125 718 285 886 b 876 486 715 886 876 718 b 500 86 876 254 715 86 b 125 486 285 86 125 254 "},"˘":{"x_min":9.53125,"x_max":330.75,"ha":347,"o":"m 236 1181 b 168 1113 232 1126 209 1113 b 103 1181 129 1113 107 1126 l 9 1181 b 168 1013 10 1079 61 1013 b 330 1181 276 1013 330 1079 l 236 1181 "},"Ă":{"x_min":16.109375,"x_max":540.140625,"ha":565,"o":"m 387 972 l 168 972 l 16 0 l 153 0 l 179 176 l 363 176 l 389 0 l 540 0 l 387 972 m 270 800 l 342 308 l 198 308 l 270 800 m 344 1181 b 276 1113 340 1126 316 1113 b 210 1181 236 1113 214 1126 l 116 1181 b 276 1013 118 1079 168 1013 b 438 1181 383 1013 438 1079 l 344 1181 "},"D":{"x_min":54.4375,"x_max":514.5,"ha":567,"o":"m 54 0 l 291 0 b 514 240 441 0 514 84 l 514 731 b 291 972 514 887 441 972 l 54 972 l 54 0 m 288 833 b 364 738 336 833 364 808 l 364 233 b 288 138 364 163 336 138 l 204 138 l 204 833 l 288 833 "},"ÿ":{"x_min":5.4375,"x_max":533.5625,"ha":550,"o":"m 194 0 l 344 0 l 344 322 l 533 972 l 390 972 l 276 529 l 161 972 l 5 972 l 194 322 l 194 0 m 96 1161 l 96 1019 l 235 1019 l 235 1161 l 96 1161 m 314 1161 l 314 1019 l 453 1019 l 453 1161 l 314 1161 "},"ĺ":{"x_min":54.09375,"x_max":450.171875,"ha":474,"o":"m 54 0 l 450 0 l 450 138 l 203 138 l 203 972 l 54 972 l 54 0 m 202 1181 l 104 1019 l 210 1019 l 357 1181 l 202 1181 "},"ł":{"x_min":0,"x_max":462.78125,"ha":486,"o":"m 0 132 l 66 204 l 66 0 l 462 0 l 462 138 l 216 138 l 216 368 l 381 548 l 381 687 l 216 507 l 216 972 l 66 972 l 66 343 l 0 270 l 0 132 "},"Ł":{"x_min":0,"x_max":462.78125,"ha":486,"o":"m 0 132 l 66 204 l 66 0 l 462 0 l 462 138 l 216 138 l 216 368 l 381 548 l 381 687 l 216 507 l 216 972 l 66 972 l 66 343 l 0 270 l 0 132 "},"$":{"x_min":46.28125,"x_max":492.71875,"ha":550,"o":"m 50 725 b 343 237 50 447 343 437 b 265 143 343 168 313 143 b 187 237 217 143 187 168 l 187 313 l 46 313 l 46 247 b 208 8 46 115 100 30 l 208 -62 l 330 -62 l 330 8 b 492 247 436 30 492 115 b 200 734 492 525 200 534 b 274 830 200 804 227 830 b 349 734 322 830 349 804 l 349 694 l 491 694 l 491 725 b 330 962 491 856 436 940 l 330 1034 l 208 1034 l 208 962 b 50 725 103 938 50 855 "},"w":{"x_min":20.421875,"x_max":745.890625,"ha":782,"o":"m 441 0 l 639 0 l 745 972 l 615 972 l 537 200 l 462 972 l 318 972 l 246 205 l 166 972 l 20 972 l 126 0 l 332 0 l 386 518 l 441 0 "},"\\":{"x_min":6.8125,"x_max":511.78125,"ha":529,"o":"m 136 972 l 6 972 l 382 0 l 511 0 l 136 972 "},"Ì":{"x_min":-54.4375,"x_max":205.53125,"ha":264,"o":"m 54 0 l 204 0 l 204 972 l 54 972 l 54 0 m -54 1181 l 92 1019 l 205 1019 l 107 1181 l -54 1181 "},"Ç":{"x_min":42.1875,"x_max":488.640625,"ha":536,"o":"m 141 -151 b 258 -247 141 -215 197 -247 b 382 -133 325 -247 382 -216 b 296 -54 382 -84 349 -54 l 296 -9 b 488 233 423 1 488 88 l 488 362 l 347 362 l 347 223 b 269 129 347 154 317 129 b 191 223 221 129 191 154 l 191 748 b 269 844 191 818 221 844 b 347 748 317 844 347 818 l 347 644 l 488 644 l 488 738 b 265 983 488 894 412 983 b 42 738 118 983 42 894 l 42 233 b 228 -8 42 90 104 4 l 228 -101 l 243 -101 b 292 -140 276 -101 292 -113 b 257 -176 292 -163 280 -176 b 228 -151 243 -176 228 -170 l 228 -137 l 141 -137 l 141 -151 "},"Ŝ":{"x_min":31.515625,"x_max":477.953125,"ha":519,"o":"m 35 738 b 328 223 35 460 328 423 b 250 128 328 153 298 128 b 173 223 203 128 173 153 l 173 299 l 31 299 l 31 233 b 254 -11 31 77 107 -11 b 477 233 401 -11 477 77 b 185 748 477 510 185 548 b 260 844 185 817 212 844 b 335 748 307 844 335 817 l 335 701 l 476 701 l 476 738 b 256 983 476 894 401 983 b 35 738 110 983 35 894 m 190 1019 l 253 1099 l 317 1019 l 452 1019 l 325 1181 l 182 1181 l 56 1019 l 190 1019 "},"C":{"x_min":42.1875,"x_max":488.640625,"ha":536,"o":"m 347 362 l 347 223 b 269 129 347 154 317 129 b 191 223 221 129 191 154 l 191 748 b 269 844 191 818 221 844 b 347 748 317 844 347 818 l 347 644 l 488 644 l 488 738 b 265 983 488 894 412 983 b 42 738 118 983 42 894 l 42 233 b 265 -11 42 77 118 -11 b 488 233 412 -11 488 77 l 488 362 l 347 362 "},"Ḋ":{"x_min":54.4375,"x_max":514.5,"ha":567,"o":"m 54 0 l 291 0 b 514 240 441 0 514 84 l 514 731 b 291 972 514 887 441 972 l 54 972 l 54 0 m 288 833 b 364 738 336 833 364 808 l 364 233 b 288 138 364 163 336 138 l 204 138 l 204 833 l 288 833 m 194 1161 l 194 1019 l 333 1019 l 333 1161 l 194 1161 "},"Ē":{"x_min":54.4375,"x_max":462.78125,"ha":511,"o":"m 204 833 l 462 833 l 462 972 l 54 972 l 54 0 l 462 0 l 462 138 l 204 138 l 204 423 l 409 423 l 409 562 l 204 562 l 204 833 m 91 1140 l 91 1026 l 420 1026 l 420 1140 l 91 1140 "},"!":{"x_min":54.4375,"x_max":204.171875,"ha":264,"o":"m 185 215 l 204 566 l 204 972 l 54 972 l 54 566 l 73 215 l 185 215 m 57 147 l 57 0 l 201 0 l 201 147 l 57 147 "},"ç":{"x_min":42.1875,"x_max":488.640625,"ha":536,"o":"m 141 -151 b 258 -247 141 -215 197 -247 b 382 -133 325 -247 382 -216 b 296 -54 382 -84 349 -54 l 296 -9 b 488 233 423 1 488 88 l 488 362 l 347 362 l 347 223 b 269 129 347 154 317 129 b 191 223 221 129 191 154 l 191 748 b 269 844 191 818 221 844 b 347 748 317 844 347 818 l 347 644 l 488 644 l 488 738 b 265 983 488 894 412 983 b 42 738 118 983 42 894 l 42 233 b 228 -8 42 90 104 4 l 228 -101 l 243 -101 b 292 -140 276 -101 292 -113 b 257 -176 292 -163 280 -176 b 228 -151 243 -176 228 -170 l 228 -137 l 141 -137 l 141 -151 "},"Ĵ":{"x_min":2.71875,"x_max":398.8125,"ha":356,"o":"m 13 0 b 85 -2 38 -2 58 -2 b 300 241 198 -2 300 47 l 300 972 l 151 972 l 151 230 b 65 137 151 155 112 137 b 13 138 49 137 29 137 l 13 0 m 137 1019 l 200 1099 l 264 1019 l 398 1019 l 272 1181 l 129 1181 l 2 1019 l 137 1019 "},"È":{"x_min":54.046875,"x_max":462.375,"ha":511,"o":"m 203 833 l 462 833 l 462 972 l 54 972 l 54 0 l 462 0 l 462 138 l 203 138 l 203 423 l 409 423 l 409 562 l 203 562 l 203 833 m 71 1181 l 218 1019 l 331 1019 l 233 1181 l 71 1181 "},"X":{"x_min":20.421875,"x_max":564.859375,"ha":597,"o":"m 415 972 l 299 613 l 186 972 l 31 972 l 187 500 l 20 0 l 160 0 l 284 384 l 406 0 l 564 0 l 397 500 l 553 972 l 415 972 "},"ô":{"x_min":42.328125,"x_max":496.9375,"ha":550,"o":"m 192 748 b 269 844 192 817 222 844 b 347 748 317 844 347 817 l 347 223 b 269 127 347 153 317 127 b 192 223 222 127 192 153 l 192 748 m 42 233 b 269 -11 42 77 122 -11 b 496 233 416 -11 496 77 l 496 738 b 269 983 496 894 416 983 b 42 738 122 983 42 894 l 42 233 m 205 1019 l 268 1099 l 332 1019 l 467 1019 l 340 1181 l 197 1181 l 70 1019 l 205 1019 "},"Ė":{"x_min":54.4375,"x_max":462.78125,"ha":511,"o":"m 204 833 l 462 833 l 462 972 l 54 972 l 54 0 l 462 0 l 462 138 l 204 138 l 204 423 l 409 423 l 409 562 l 204 562 l 204 833 m 186 1161 l 186 1019 l 325 1019 l 325 1161 l 186 1161 "},"Ā":{"x_min":15.078125,"x_max":539.109375,"ha":565,"o":"m 386 972 l 167 972 l 15 0 l 152 0 l 178 176 l 362 176 l 388 0 l 539 0 l 386 972 m 269 800 l 341 308 l 197 308 l 269 800 m 111 1140 l 111 1026 l 441 1026 l 441 1140 l 111 1140 "},"ċ":{"x_min":42.1875,"x_max":488.640625,"ha":536,"o":"m 347 362 l 347 223 b 269 129 347 154 317 129 b 191 223 221 129 191 154 l 191 748 b 269 844 191 818 221 844 b 347 748 317 844 347 818 l 347 644 l 488 644 l 488 738 b 265 983 488 894 412 983 b 42 738 118 983 42 894 l 42 233 b 265 -11 42 77 118 -11 b 488 233 412 -11 488 77 l 488 362 l 347 362 m 196 1161 l 196 1019 l 334 1019 l 334 1161 l 196 1161 "},"đ":{"x_min":5.4375,"x_max":514.5,"ha":567,"o":"m 54 0 l 291 0 b 514 240 441 0 514 84 l 514 731 b 291 972 514 887 441 972 l 54 972 l 54 548 l 5 548 l 5 423 l 54 423 l 54 0 m 288 833 b 364 738 336 833 364 808 l 364 233 b 288 138 364 163 336 138 l 204 138 l 204 423 l 296 423 l 296 548 l 204 548 l 204 833 l 288 833 "},"Ẃ":{"x_min":20.421875,"x_max":745.890625,"ha":782,"o":"m 441 0 l 639 0 l 745 972 l 615 972 l 537 200 l 462 972 l 318 972 l 246 205 l 166 972 l 20 972 l 126 0 l 332 0 l 386 518 l 441 0 m 408 1181 l 310 1019 l 416 1019 l 563 1181 l 408 1181 "},"Ŀ":{"x_min":54.4375,"x_max":450.53125,"ha":474,"o":"m 54 0 l 450 0 l 450 138 l 204 138 l 204 972 l 54 972 l 54 0 m 287 559 l 287 412 l 431 412 l 431 559 l 287 559 "},"ț":{"x_min":13.515625,"x_max":476.359375,"ha":500,"o":"m 13 833 l 170 833 l 170 0 l 319 0 l 319 833 l 476 833 l 476 972 l 13 972 l 13 833 m 230 -188 l 190 -272 l 249 -272 l 314 -173 l 314 -47 l 175 -47 l 175 -188 l 230 -188 "},"}":{"x_min":22.296875,"x_max":335.34375,"ha":357,"o":"m 211 486 b 123 362 142 468 125 413 l 116 223 b 44 125 112 147 91 125 l 22 125 l 22 0 l 98 0 b 249 154 182 0 242 48 l 260 340 b 335 423 264 404 278 423 l 335 548 b 260 631 278 548 264 568 l 249 818 b 98 972 242 923 182 972 l 22 972 l 22 847 l 44 847 b 116 748 91 847 112 825 l 123 609 b 211 486 125 558 142 504 "},"â":{"x_min":14.96875,"x_max":539,"ha":565,"o":"m 386 972 l 167 972 l 14 0 l 152 0 l 178 176 l 362 176 l 387 0 l 539 0 l 386 972 m 269 799 l 341 308 l 197 308 l 269 799 m 213 1019 l 276 1099 l 340 1019 l 475 1019 l 348 1181 l 205 1181 l 78 1019 l 213 1019 "},"ø":{"x_min":42.03125,"x_max":496.96875,"ha":550,"o":"m 42 233 b 89 64 42 162 58 105 l 55 -33 l 106 -51 l 133 23 b 269 -10 168 0 215 -10 b 496 233 416 -10 496 77 l 496 738 b 447 906 496 809 480 866 l 483 1005 l 432 1024 l 405 946 b 269 983 370 970 323 983 b 42 738 122 983 42 894 l 42 233 m 191 748 b 269 844 191 817 221 844 b 344 777 308 844 337 824 l 191 348 l 191 748 m 269 127 b 193 194 228 127 201 145 l 347 623 l 347 223 b 269 127 347 154 317 127 "},"‰":{"x_min":46.28125,"x_max":1155.578125,"ha":1226,"o":"m 141 830 b 190 891 141 873 159 891 b 239 830 220 891 239 873 l 239 497 b 190 436 239 454 220 436 b 141 497 159 436 141 454 l 141 830 m 46 504 b 190 348 46 404 96 348 b 334 504 284 348 334 404 l 334 823 b 190 979 334 923 284 979 b 46 823 96 979 46 923 l 46 504 m 190 0 l 279 0 l 654 972 l 566 972 l 190 0 m 613 470 b 662 531 613 513 631 531 b 711 470 692 531 711 513 l 711 137 b 662 76 711 94 692 76 b 613 137 631 76 613 94 l 613 470 m 518 144 b 662 -11 518 44 568 -11 b 807 144 756 -11 807 44 l 807 463 b 662 619 807 563 756 619 b 518 463 568 619 518 563 l 518 144 m 962 470 b 1011 531 962 513 980 531 b 1060 470 1041 531 1060 513 l 1060 137 b 1011 76 1060 94 1041 76 b 962 137 980 76 962 94 l 962 470 m 867 144 b 1011 -11 867 44 917 -11 b 1155 144 1105 -11 1155 44 l 1155 463 b 1011 619 1155 563 1105 619 b 867 463 917 619 867 563 l 867 144 "},"Ä":{"x_min":15.21875,"x_max":539.25,"ha":565,"o":"m 386 972 l 167 972 l 15 0 l 152 0 l 178 176 l 362 176 l 388 0 l 539 0 l 386 972 m 269 800 l 341 308 l 197 308 l 269 800 m 98 1161 l 98 1019 l 237 1019 l 237 1161 l 98 1161 m 316 1161 l 316 1019 l 454 1019 l 454 1161 l 316 1161 "},"ř":{"x_min":54.015625,"x_max":520.265625,"ha":558,"o":"m 520 0 b 503 118 505 36 503 70 l 503 268 b 404 475 503 369 479 443 b 502 672 471 506 502 572 l 502 748 b 280 972 502 898 435 972 l 54 972 l 54 0 l 204 0 l 204 395 l 255 395 b 354 272 324 395 354 362 l 354 119 b 367 0 354 40 359 25 l 520 0 m 276 833 b 352 733 329 833 352 802 l 352 637 b 262 534 352 559 318 534 l 204 534 l 204 833 l 276 833 m 66 1181 l 193 1019 l 336 1019 l 463 1181 l 328 1181 l 264 1100 l 201 1181 l 66 1181 "},"—":{"x_min":0,"x_max":1361.109375,"ha":1389,"o":"m 0 423 l 1361 423 l 1361 548 l 0 548 l 0 423 "},"N":{"x_min":53.078125,"x_max":528.109375,"ha":593,"o":"m 374 0 l 528 0 l 528 972 l 394 972 l 394 390 l 240 972 l 53 972 l 53 0 l 187 0 l 187 704 l 374 0 "},"⁄":{"x_min":-186.46875,"x_max":277.671875,"ha":93,"o":"m -186 0 l -98 0 l 277 972 l 189 972 l -186 0 "},"2":{"x_min":54.375,"x_max":500.828125,"ha":550,"o":"m 351 733 b 54 119 351 452 54 405 l 54 0 l 487 0 l 487 138 l 204 138 b 500 738 175 309 500 419 b 277 983 500 894 424 983 b 54 738 130 983 54 894 l 54 644 l 195 644 l 195 748 b 273 844 195 818 225 844 b 351 733 321 844 351 820 "},"ü":{"x_min":47.640625,"x_max":494.078125,"ha":553,"o":"m 47 972 l 47 231 b 270 -12 47 76 123 -12 b 494 231 417 -12 494 76 l 494 972 l 352 972 l 352 222 b 274 127 352 152 322 127 b 197 222 227 127 197 152 l 197 972 l 47 972 m 95 1161 l 95 1019 l 234 1019 l 234 1161 l 95 1161 m 313 1161 l 313 1019 l 451 1019 l 451 1161 l 313 1161 "},"˜":{"x_min":-32.671875,"x_max":372.9375,"ha":347,"o":"m 296 1176 b 236 1130 279 1139 262 1130 b 96 1167 194 1130 157 1167 b -32 1069 47 1167 12 1151 l 43 1011 b 103 1056 61 1047 77 1056 b 243 1019 145 1056 182 1019 b 372 1117 292 1019 328 1035 l 296 1176 "},"Ó":{"x_min":42.1875,"x_max":496.8125,"ha":550,"o":"m 191 748 b 269 844 191 818 221 844 b 347 748 317 844 347 818 l 347 223 b 269 127 347 154 317 127 b 191 223 221 127 191 154 l 191 748 m 42 233 b 269 -11 42 77 122 -11 b 496 233 416 -11 496 77 l 496 738 b 269 983 496 894 416 983 b 42 738 122 983 42 894 l 42 233 m 295 1181 l 197 1019 l 303 1019 l 450 1181 l 295 1181 "},"ˇ":{"x_min":-27.21875,"x_max":368.859375,"ha":347,"o":"m -27 1181 l 99 1019 l 242 1019 l 368 1181 l 234 1181 l 170 1100 l 107 1181 l -27 1181 "},"Ÿ":{"x_min":5.4375,"x_max":533.5625,"ha":550,"o":"m 194 0 l 344 0 l 344 322 l 533 972 l 390 972 l 276 529 l 161 972 l 5 972 l 194 322 l 194 0 m 96 1161 l 96 1019 l 235 1019 l 235 1161 l 96 1161 m 314 1161 l 314 1019 l 453 1019 l 453 1161 l 314 1161 "},"ų":{"x_min":47.78125,"x_max":494.234375,"ha":553,"o":"m 47 972 l 47 232 b 271 -12 47 76 124 -12 b 291 -10 277 -12 284 -12 b 247 -103 260 -41 247 -75 b 366 -189 247 -160 294 -189 b 458 -174 404 -189 427 -187 l 458 -96 b 409 -105 443 -100 437 -105 b 362 -66 385 -105 362 -92 b 408 25 362 -45 369 -3 b 494 232 464 67 494 136 l 494 972 l 352 972 l 352 222 b 275 128 352 153 322 128 b 197 222 227 128 197 153 l 197 972 l 47 972 "},"€":{"x_min":25.859375,"x_max":502.25,"ha":550,"o":"m 25 527 l 63 527 l 63 451 l 25 451 l 25 375 l 63 375 l 63 233 b 283 -11 63 77 136 -11 b 502 233 430 -11 502 77 l 502 320 l 360 320 l 360 223 b 287 129 360 154 334 129 b 213 223 239 129 213 154 l 213 375 l 423 375 l 423 451 l 213 451 l 213 527 l 423 527 l 423 604 l 213 604 l 213 748 b 287 844 213 818 239 844 b 360 748 334 844 360 818 l 360 658 l 502 658 l 502 738 b 283 983 502 894 430 983 b 63 738 136 983 63 894 l 63 604 l 25 604 l 25 527 "},"Ŭ":{"x_min":47.640625,"x_max":494.078125,"ha":553,"o":"m 47 972 l 47 231 b 270 -12 47 76 123 -12 b 494 231 417 -12 494 76 l 494 972 l 352 972 l 352 222 b 274 127 352 152 322 127 b 197 222 227 127 197 152 l 197 972 l 47 972 m 338 1181 b 270 1113 334 1126 311 1113 b 205 1181 231 1113 209 1126 l 111 1181 b 270 1013 112 1079 163 1013 b 432 1181 378 1013 432 1079 l 338 1181 "},"ĝ":{"x_min":42.515625,"x_max":488.953125,"ha":542,"o":"m 279 402 l 347 402 l 347 223 b 269 128 347 153 317 128 b 192 223 222 128 192 153 l 192 748 b 269 844 192 817 222 844 b 347 748 317 844 347 817 l 347 644 l 488 644 l 488 738 b 265 983 488 894 412 983 b 42 738 118 983 42 894 l 42 233 b 265 -11 42 77 118 -11 b 488 233 412 -11 488 77 l 488 541 l 279 541 l 279 402 m 201 1019 l 264 1099 l 328 1019 l 463 1019 l 336 1181 l 193 1181 l 67 1019 l 201 1019 "},"ß":{"x_min":31.3125,"x_max":986.8125,"ha":1039,"o":"m 35 738 b 328 223 35 461 328 423 b 250 129 328 154 298 129 b 172 223 202 129 172 154 l 172 300 l 31 300 l 31 233 b 254 -11 31 77 107 -11 b 477 233 401 -11 477 77 b 185 748 477 511 185 548 b 259 844 185 818 212 844 b 334 748 307 844 334 818 l 334 701 l 476 701 l 476 738 b 255 983 476 894 401 983 b 35 738 110 983 35 894 m 544 738 b 837 223 544 461 837 423 b 759 129 837 154 807 129 b 681 223 711 129 681 154 l 681 300 l 540 300 l 540 233 b 763 -11 540 77 616 -11 b 986 233 910 -11 986 77 b 694 748 986 511 694 548 b 769 844 694 818 721 844 b 843 748 816 844 843 818 l 843 701 l 985 701 l 985 738 b 764 983 985 894 910 983 b 544 738 619 983 544 894 "},"s":{"x_min":31.3125,"x_max":477.75,"ha":519,"o":"m 35 738 b 328 223 35 461 328 423 b 250 129 328 154 298 129 b 172 223 202 129 172 154 l 172 300 l 31 300 l 31 233 b 254 -11 31 77 107 -11 b 477 233 401 -11 477 77 b 185 748 477 511 185 548 b 259 844 185 818 212 844 b 334 748 307 844 334 818 l 334 701 l 476 701 l 476 738 b 255 983 476 894 401 983 b 35 738 110 983 35 894 "},"Ű":{"x_min":48.125,"x_max":520.4375,"ha":553,"o":"m 48 972 l 48 231 b 271 -12 48 76 124 -12 b 494 231 418 -12 494 76 l 494 972 l 353 972 l 353 222 b 275 127 353 152 323 127 b 197 222 227 127 197 152 l 197 972 l 48 972 m 189 1181 l 118 1019 l 214 1019 l 333 1181 l 189 1181 m 376 1181 l 305 1019 l 400 1019 l 520 1181 l 376 1181 "},"?":{"x_min":27.21875,"x_max":468.21875,"ha":500,"o":"m 296 215 b 291 269 292 233 291 251 b 468 738 291 447 468 486 b 247 983 468 894 393 983 b 27 738 102 983 27 894 l 27 643 l 168 643 l 168 748 b 243 844 168 818 196 844 b 318 748 291 844 318 818 b 155 275 318 506 155 487 b 163 215 155 250 157 231 l 296 215 m 156 147 l 156 0 l 300 0 l 300 147 l 156 147 "},"Ņ":{"x_min":53.59375,"x_max":528.6875,"ha":593,"o":"m 374 0 l 528 0 l 528 972 l 395 972 l 395 390 l 241 972 l 53 972 l 53 0 l 188 0 l 188 704 l 374 0 m 275 -188 l 235 -272 l 294 -272 l 359 -173 l 359 -47 l 221 -47 l 221 -188 l 275 -188 "},"c":{"x_min":42.1875,"x_max":488.640625,"ha":536,"o":"m 347 362 l 347 223 b 269 129 347 154 317 129 b 191 223 221 129 191 154 l 191 748 b 269 844 191 818 221 844 b 347 748 317 844 347 818 l 347 644 l 488 644 l 488 738 b 265 983 488 894 412 983 b 42 738 118 983 42 894 l 42 233 b 265 -11 42 77 118 -11 b 488 233 412 -11 488 77 l 488 362 l 347 362 "},"¶":{"x_min":19.0625,"x_max":484.5625,"ha":550,"o":"m 484 972 l 242 972 b 19 731 92 972 19 887 l 19 605 b 196 368 19 466 81 368 l 193 -90 l 302 -90 l 302 861 l 375 861 l 375 -90 l 484 -90 l 484 972 "},"Ī":{"x_min":-35.390625,"x_max":294,"ha":264,"o":"m 54 0 l 204 0 l 204 972 l 54 972 l 54 0 m -35 1140 l -35 1026 l 294 1026 l 294 1140 l -35 1140 "},"•":{"x_min":80.3125,"x_max":458.6875,"ha":550,"o":"m 80 486 b 269 293 80 379 164 293 b 458 486 374 293 458 379 b 269 679 458 593 374 679 b 80 486 164 679 80 593 "},"(":{"x_min":63.96875,"x_max":319.859375,"ha":349,"o":"m 273 972 b 63 759 123 972 63 915 l 63 212 b 273 0 63 56 123 0 l 319 0 l 319 125 l 283 125 b 213 212 235 125 213 143 l 213 759 b 283 847 213 829 235 847 l 319 847 l 319 972 l 273 972 "},"­":{"x_min":47.640625,"x_max":319.859375,"ha":375,"o":"m 47 416 l 319 416 l 319 555 l 47 555 l 47 416 "},"Ħ":{"x_min":13.609375,"x_max":581.1875,"ha":607,"o":"m 210 416 l 381 416 l 381 0 l 533 0 l 533 697 l 581 697 l 581 811 l 533 811 l 533 972 l 381 972 l 381 811 l 210 811 l 210 972 l 61 972 l 61 811 l 13 811 l 13 697 l 61 697 l 61 0 l 210 0 l 210 416 m 210 555 l 210 697 l 381 697 l 381 555 l 210 555 "},":":{"x_min":54.4375,"x_max":198.71875,"ha":258,"o":"m 54 147 l 54 0 l 198 0 l 198 147 l 54 147 m 54 676 l 54 529 l 198 529 l 198 676 l 54 676 "},"Û":{"x_min":48.46875,"x_max":494.921875,"ha":553,"o":"m 48 972 l 48 231 b 271 -12 48 76 124 -12 b 494 231 418 -12 494 76 l 494 972 l 353 972 l 353 222 b 275 127 353 152 323 127 b 198 222 228 127 198 152 l 198 972 l 48 972 m 210 1019 l 273 1099 l 337 1019 l 471 1019 l 345 1181 l 202 1181 l 75 1019 l 210 1019 "},"ś":{"x_min":31.1875,"x_max":477.625,"ha":519,"o":"m 35 738 b 327 223 35 461 327 423 b 250 129 327 154 297 129 b 172 223 202 129 172 154 l 172 300 l 31 300 l 31 233 b 254 -11 31 77 107 -11 b 477 233 401 -11 477 77 b 184 748 477 511 184 548 b 259 844 184 818 212 844 b 334 748 307 844 334 818 l 334 701 l 476 701 l 476 738 b 255 983 476 894 401 983 b 35 738 110 983 35 894 m 280 1181 l 182 1019 l 288 1019 l 435 1181 l 280 1181 "},"V":{"x_min":14.96875,"x_max":532.1875,"ha":558,"o":"m 166 972 l 14 972 l 161 0 l 385 0 l 532 972 l 394 972 l 280 179 l 166 972 "},"Ŗ":{"x_min":54.5625,"x_max":520.140625,"ha":558,"o":"m 520 0 b 503 118 505 36 503 70 l 503 268 b 404 475 503 369 479 443 b 502 672 471 506 502 572 l 502 748 b 280 972 502 898 435 972 l 54 972 l 54 0 l 204 0 l 204 395 l 256 395 b 354 272 324 395 354 362 l 354 119 b 367 0 354 40 359 25 l 520 0 m 276 833 b 352 733 329 833 352 802 l 352 637 b 262 534 352 559 318 534 l 204 534 l 204 833 l 276 833 m 261 -188 l 221 -272 l 280 -272 l 345 -173 l 345 -47 l 207 -47 l 207 -188 l 261 -188 "}," ":{"x_min":0,"x_max":0,"ha":215},"@":{"x_min":32.671875,"x_max":913.3125,"ha":957,"o":"m 647 175 b 913 619 752 175 913 277 b 534 1027 913 844 822 1027 b 32 402 198 1027 32 745 b 469 -84 32 114 163 -84 b 748 -6 570 -84 658 -67 l 759 127 b 477 32 664 52 578 32 b 160 395 261 32 160 171 b 529 909 160 712 287 909 b 800 616 718 909 800 790 b 691 302 800 474 767 302 b 664 336 669 302 661 313 l 705 738 l 574 738 l 566 658 b 454 744 548 712 511 743 b 288 538 359 748 302 674 l 273 398 b 396 184 259 263 300 186 b 528 267 455 181 500 210 b 647 175 533 202 578 175 m 417 523 b 495 611 424 588 453 612 b 553 533 532 611 559 587 l 540 400 b 464 313 533 336 504 311 b 405 405 421 314 398 341 l 417 523 "},"¾":{"x_min":49.078125,"x_max":825.84375,"ha":871,"o":"m 236 506 b 187 436 236 451 217 436 b 138 497 157 436 138 454 l 138 554 l 49 554 l 49 504 b 190 348 49 404 96 348 b 332 504 284 348 332 404 l 332 552 b 265 681 332 615 313 661 b 332 808 311 701 332 741 l 332 823 b 190 979 332 923 284 979 b 49 823 96 979 49 923 l 49 791 l 138 791 l 138 830 b 187 891 138 873 157 891 b 236 820 217 891 236 876 l 236 786 b 179 719 236 737 215 719 l 143 719 l 143 631 l 175 631 b 236 554 217 631 236 612 l 236 506 m 231 0 l 319 0 l 695 972 l 606 972 l 231 0 m 504 106 l 687 106 l 687 -4 l 780 -4 l 780 106 l 825 106 l 825 195 l 780 195 l 780 612 l 677 612 l 504 195 l 504 106 m 590 195 l 687 423 l 687 195 l 590 195 "},"ŉ":{"x_min":53.078125,"x_max":528.109375,"ha":593,"o":"m 374 0 l 528 0 l 528 972 l 394 972 l 394 390 l 240 972 l 53 972 l 53 0 l 187 0 l 187 704 l 374 0 m 92 1181 l 219 1019 l 362 1019 l 488 1181 l 353 1181 l 289 1100 l 227 1181 l 92 1181 "},"i":{"x_min":54.4375,"x_max":204.171875,"ha":264,"o":"m 54 0 l 204 0 l 204 972 l 54 972 l 54 0 "},"Ģ":{"x_min":42.203125,"x_max":488.703125,"ha":542,"o":"m 279 402 l 347 402 l 347 223 b 269 129 347 154 317 129 b 191 223 221 129 191 154 l 191 748 b 269 844 191 818 221 844 b 347 748 317 844 347 818 l 347 644 l 488 644 l 488 738 b 265 983 488 894 412 983 b 42 738 118 983 42 894 l 42 233 b 265 -11 42 77 118 -11 b 488 233 412 -11 488 77 l 488 541 l 279 541 l 279 402 m 250 -188 l 210 -272 l 269 -272 l 334 -173 l 334 -47 l 196 -47 l 196 -188 l 250 -188 "},"m":{"x_min":53.078125,"x_max":681.921875,"ha":751,"o":"m 261 972 l 53 972 l 53 0 l 183 0 l 183 687 l 295 0 l 436 0 l 540 697 l 540 0 l 681 0 l 681 972 l 473 972 l 371 281 l 261 972 "},"ĕ":{"x_min":54.4375,"x_max":462.78125,"ha":511,"o":"m 204 833 l 462 833 l 462 972 l 54 972 l 54 0 l 462 0 l 462 138 l 204 138 l 204 423 l 409 423 l 409 562 l 204 562 l 204 833 m 322 1181 b 254 1113 318 1126 295 1113 b 189 1181 215 1113 193 1126 l 95 1181 b 254 1013 96 1079 147 1013 b 416 1181 362 1013 416 1079 l 322 1181 "},"ż":{"x_min":31.546875,"x_max":470,"ha":514,"o":"m 45 972 l 45 833 l 316 833 l 31 136 l 31 0 l 470 0 l 470 138 l 185 138 l 470 836 l 470 972 l 45 972 m 184 1161 l 184 1019 l 323 1019 l 323 1161 l 184 1161 "},"ő":{"x_min":42.140625,"x_max":517.171875,"ha":550,"o":"m 191 748 b 269 844 191 818 221 844 b 347 748 317 844 347 818 l 347 223 b 269 127 347 154 317 127 b 191 223 221 127 191 154 l 191 748 m 42 233 b 269 -11 42 77 122 -11 b 496 233 416 -11 496 77 l 496 738 b 269 983 496 894 416 983 b 42 738 122 983 42 894 l 42 233 m 186 1181 l 115 1019 l 210 1019 l 330 1181 l 186 1181 m 372 1181 l 302 1019 l 397 1019 l 517 1181 l 372 1181 "},"ž":{"x_min":31.3125,"x_max":469.578125,"ha":514,"o":"m 44 972 l 44 833 l 315 833 l 31 136 l 31 0 l 469 0 l 469 138 l 185 138 l 469 836 l 469 972 l 44 972 m 55 1181 l 182 1019 l 325 1019 l 451 1181 l 317 1181 l 253 1100 l 190 1181 l 55 1181 "},"Ŏ":{"x_min":42.1875,"x_max":496.8125,"ha":550,"o":"m 191 748 b 269 844 191 818 221 844 b 347 748 317 844 347 818 l 347 223 b 269 127 347 154 317 127 b 191 223 221 127 191 154 l 191 748 m 42 233 b 269 -11 42 77 122 -11 b 496 233 416 -11 496 77 l 496 738 b 269 983 496 894 416 983 b 42 738 122 983 42 894 l 42 233 m 336 1181 b 268 1113 332 1126 308 1113 b 202 1181 228 1113 206 1126 l 108 1181 b 268 1013 110 1079 160 1013 b 430 1181 375 1013 430 1079 l 336 1181 "},"á":{"x_min":14.96875,"x_max":539,"ha":565,"o":"m 386 972 l 167 972 l 14 0 l 152 0 l 178 176 l 362 176 l 387 0 l 539 0 l 386 972 m 269 800 l 341 308 l 197 308 l 269 800 m 302 1181 l 204 1019 l 310 1019 l 457 1181 l 302 1181 "},"×":{"x_min":51.71875,"x_max":485.921875,"ha":550,"o":"m 125 705 l 53 631 l 196 486 l 51 338 l 123 265 l 269 412 l 413 265 l 485 338 l 341 486 l 485 633 l 413 707 l 269 559 l 125 705 "},"İ":{"x_min":54.4375,"x_max":204.171875,"ha":264,"o":"m 54 0 l 204 0 l 204 972 l 54 972 l 54 0 m 59 1161 l 59 1019 l 198 1019 l 198 1161 l 59 1161 "},"Ě":{"x_min":54.015625,"x_max":462.34375,"ha":511,"o":"m 203 833 l 462 833 l 462 972 l 54 972 l 54 0 l 462 0 l 462 138 l 203 138 l 203 423 l 409 423 l 409 562 l 203 562 l 203 833 m 56 1181 l 183 1019 l 326 1019 l 452 1181 l 318 1181 l 254 1100 l 191 1181 l 56 1181 "},"K":{"x_min":54.4375,"x_max":549.890625,"ha":575,"o":"m 396 0 l 549 0 l 341 538 l 549 972 l 402 972 l 204 548 l 204 972 l 54 972 l 54 0 l 204 0 l 204 298 l 250 387 l 396 0 "},"7":{"x_min":44.921875,"x_max":494.078125,"ha":550,"o":"m 44 972 l 44 833 l 343 833 l 123 0 l 273 0 l 494 838 l 494 972 l 44 972 "},"⁰":{"x_min":46.28125,"x_max":334.828125,"ha":389,"o":"m 141 830 b 190 891 141 873 159 891 b 239 830 220 891 239 873 l 239 497 b 190 436 239 454 220 436 b 141 497 159 436 141 454 l 141 830 m 46 504 b 190 348 46 404 96 348 b 334 504 284 348 334 404 l 334 823 b 190 979 334 923 284 979 b 46 823 96 979 46 923 l 46 504 "},"¨":{"x_min":-8.171875,"x_max":348.4375,"ha":347,"o":"m -8 1161 l -8 1019 l 130 1019 l 130 1161 l -8 1161 m 209 1161 l 209 1019 l 348 1019 l 348 1161 l 209 1161 "},"Y":{"x_min":5.4375,"x_max":533.5625,"ha":550,"o":"m 194 0 l 344 0 l 344 322 l 533 972 l 390 972 l 276 529 l 161 972 l 5 972 l 194 322 l 194 0 "},"E":{"x_min":54.4375,"x_max":462.78125,"ha":511,"o":"m 204 833 l 462 833 l 462 972 l 54 972 l 54 0 l 462 0 l 462 138 l 204 138 l 204 423 l 409 423 l 409 562 l 204 562 l 204 833 "},"Ô":{"x_min":42.328125,"x_max":496.9375,"ha":550,"o":"m 192 748 b 269 844 192 817 222 844 b 347 748 317 844 347 817 l 347 223 b 269 127 347 153 317 127 b 192 223 222 127 192 153 l 192 748 m 42 233 b 269 -11 42 77 122 -11 b 496 233 416 -11 496 77 l 496 738 b 269 983 496 894 416 983 b 42 738 122 983 42 894 l 42 233 m 205 1019 l 268 1099 l 332 1019 l 467 1019 l 340 1181 l 197 1181 l 70 1019 l 205 1019 "},"Ț":{"x_min":13.515625,"x_max":476.359375,"ha":500,"o":"m 13 833 l 170 833 l 170 0 l 319 0 l 319 833 l 476 833 l 476 972 l 13 972 l 13 833 m 230 -188 l 190 -272 l 249 -272 l 314 -173 l 314 -47 l 175 -47 l 175 -188 l 230 -188 "},"‹":{"x_min":21.78125,"x_max":245,"ha":272,"o":"m 103 856 l 21 487 l 103 95 l 245 95 l 164 487 l 245 856 l 103 856 "},"Ï":{"x_min":-49,"x_max":307.609375,"ha":264,"o":"m 54 0 l 204 0 l 204 972 l 54 972 l 54 0 m -49 1161 l -49 1019 l 89 1019 l 89 1161 l -49 1161 m 168 1161 l 168 1019 l 307 1019 l 307 1161 l 168 1161 "},"ġ":{"x_min":42.1875,"x_max":488.640625,"ha":542,"o":"m 279 402 l 347 402 l 347 223 b 269 129 347 154 317 129 b 191 223 221 129 191 154 l 191 748 b 269 844 191 818 221 844 b 347 748 317 844 347 818 l 347 644 l 488 644 l 488 738 b 265 983 488 894 412 983 b 42 738 118 983 42 894 l 42 233 b 265 -11 42 77 118 -11 b 488 233 412 -11 488 77 l 488 541 l 279 541 l 279 402 m 194 1161 l 194 1019 l 333 1019 l 333 1161 l 194 1161 "},"ķ":{"x_min":54.234375,"x_max":549.8125,"ha":575,"o":"m 396 0 l 549 0 l 341 538 l 549 972 l 402 972 l 203 548 l 203 972 l 54 972 l 54 0 l 203 0 l 203 298 l 250 387 l 396 0 m 277 -188 l 237 -272 l 296 -272 l 361 -173 l 361 -47 l 223 -47 l 223 -188 l 277 -188 "},"±":{"x_min":34.03125,"x_max":504.96875,"ha":550,"o":"m 322 727 l 216 727 l 216 540 l 34 540 l 34 431 l 216 431 l 216 241 l 322 241 l 322 431 l 504 431 l 504 540 l 322 540 l 322 727 "},"ì":{"x_min":-54.4375,"x_max":205.53125,"ha":264,"o":"m 54 0 l 204 0 l 204 972 l 54 972 l 54 0 m -54 1181 l 92 1019 l 205 1019 l 107 1181 l -54 1181 "},"|":{"x_min":285.828125,"x_max":408.328125,"ha":694,"o":"m 285 -90 l 408 -90 l 408 1062 l 285 1062 l 285 -90 "},"§":{"x_min":48.171875,"x_max":489.828125,"ha":550,"o":"m 48 436 b 340 102 48 181 340 218 b 265 25 340 52 313 25 b 190 108 218 25 190 58 l 190 156 l 49 156 l 49 87 b 269 -101 49 -23 124 -101 b 489 95 415 -101 489 -15 b 394 275 489 190 447 241 b 489 445 457 311 489 375 b 197 779 489 700 197 663 b 272 856 197 829 224 856 b 347 773 319 856 347 823 l 347 744 l 488 744 l 488 794 b 268 983 488 905 413 983 b 48 786 122 983 48 897 b 142 605 48 690 90 640 b 48 436 79 569 48 506 m 190 441 b 262 545 190 493 218 538 b 347 440 310 522 347 494 b 273 334 347 388 318 341 b 190 441 227 358 190 386 "},"q":{"x_min":42.328125,"x_max":524.171875,"ha":550,"o":"m 42 233 b 269 -11 42 77 122 -11 b 374 7 309 -11 344 -4 b 503 -59 394 -34 437 -59 l 524 -59 l 524 76 l 510 76 b 468 97 486 76 475 79 b 496 233 487 133 496 179 l 496 739 b 269 983 496 894 416 983 b 42 739 122 983 42 894 l 42 233 m 192 748 b 269 844 192 818 222 844 b 347 748 317 844 347 818 l 347 223 b 269 127 347 154 317 127 b 192 223 222 127 192 154 l 192 748 "},"b":{"x_min":55.015625,"x_max":517.796875,"ha":564,"o":"m 280 972 l 55 972 l 55 0 l 290 0 b 517 230 440 0 517 80 l 517 309 b 406 518 517 412 486 486 b 502 713 472 550 502 613 l 502 748 b 280 972 502 898 436 972 m 271 437 b 368 319 339 437 368 409 l 368 234 b 290 138 368 162 340 138 l 204 138 l 204 437 l 271 437 m 276 833 b 353 733 329 833 353 802 l 353 679 b 263 576 353 601 319 576 l 204 576 l 204 833 l 276 833 "},"®":{"x_min":26.671875,"x_max":974,"ha":1022,"o":"m 26 486 b 500 -11 26 197 230 -11 b 974 486 769 -11 974 197 b 500 983 974 775 769 983 b 26 486 230 983 26 775 m 124 486 b 500 886 124 718 285 886 b 876 486 715 886 876 718 b 500 86 876 254 715 86 b 124 486 285 86 124 254 m 674 188 b 662 270 663 213 662 238 l 662 334 b 591 477 662 405 644 455 b 662 615 640 500 662 544 l 662 627 b 508 783 662 731 614 783 l 350 783 l 350 188 l 454 188 l 454 422 l 489 422 b 558 336 537 422 558 400 l 558 272 b 568 188 558 216 561 206 l 674 188 m 503 686 b 558 615 542 686 558 663 l 558 590 b 496 519 558 536 534 519 l 454 519 l 454 686 l 503 686 "},"Ũ":{"x_min":48.03125,"x_max":494.484375,"ha":553,"o":"m 48 971 l 48 231 b 271 -12 48 76 124 -12 b 494 231 418 -12 494 76 l 494 971 l 352 971 l 352 221 b 275 127 352 152 322 127 b 197 221 227 127 197 152 l 197 971 l 48 971 m 399 1176 b 339 1130 381 1139 365 1130 b 199 1167 297 1130 260 1167 b 69 1069 150 1167 114 1151 l 146 1010 b 205 1056 163 1046 180 1056 b 346 1019 248 1056 284 1019 b 475 1117 395 1019 430 1035 l 399 1176 "},"L":{"x_min":54.4375,"x_max":450.53125,"ha":474,"o":"m 54 0 l 450 0 l 450 138 l 204 138 l 204 972 l 54 972 l 54 0 "},"ď":{"x_min":54.015625,"x_max":514.90625,"ha":567,"o":"m 54 0 l 291 0 b 514 240 441 0 514 84 l 514 731 b 291 972 514 887 441 972 l 54 972 l 54 0 m 288 833 b 364 738 336 833 364 808 l 364 233 b 288 138 364 163 336 138 l 204 138 l 204 833 l 288 833 m 66 1181 l 193 1019 l 336 1019 l 463 1181 l 328 1181 l 264 1100 l 201 1181 l 66 1181 "}," ":{"x_min":0,"x_max":0,"ha":215},"Ĭ":{"x_min":-31.3125,"x_max":289.921875,"ha":264,"o":"m 54 0 l 204 0 l 204 972 l 54 972 l 54 0 m 196 1181 b 127 1113 191 1126 168 1113 b 62 1181 88 1113 66 1126 l -31 1181 b 127 1013 -29 1079 20 1013 b 289 1181 235 1013 289 1079 l 196 1181 "},"ŧ":{"x_min":13.609375,"x_max":476.390625,"ha":500,"o":"m 80 676 l 80 562 l 170 562 l 170 0 l 319 0 l 319 562 l 409 562 l 409 676 l 319 676 l 319 833 l 476 833 l 476 972 l 13 972 l 13 833 l 170 833 l 170 676 l 80 676 "},"À":{"x_min":14.96875,"x_max":539,"ha":565,"o":"m 386 972 l 167 972 l 14 0 l 152 0 l 178 176 l 362 176 l 387 0 l 539 0 l 386 972 m 269 800 l 341 308 l 197 308 l 269 800 m 92 1181 l 239 1019 l 352 1019 l 254 1181 l 92 1181 "},"ẃ":{"x_min":20.421875,"x_max":745.890625,"ha":782,"o":"m 441 0 l 639 0 l 745 972 l 615 972 l 537 200 l 462 972 l 318 972 l 246 205 l 166 972 l 20 972 l 126 0 l 332 0 l 386 518 l 441 0 m 408 1181 l 310 1019 l 416 1019 l 563 1181 l 408 1181 "},"+":{"x_min":47.640625,"x_max":491.359375,"ha":550,"o":"m 322 350 l 322 461 l 491 461 l 491 569 l 322 569 l 322 727 l 216 727 l 216 569 l 47 569 l 47 461 l 216 461 l 216 350 l 47 350 l 47 241 l 491 241 l 491 350 l 322 350 "},"ḋ":{"x_min":54.4375,"x_max":514.5,"ha":567,"o":"m 54 0 l 291 0 b 514 240 441 0 514 84 l 514 731 b 291 972 514 887 441 972 l 54 972 l 54 0 m 288 833 b 364 738 336 833 364 808 l 364 233 b 288 138 364 163 336 138 l 204 138 l 204 833 l 288 833 m 194 1161 l 194 1019 l 333 1019 l 333 1161 l 194 1161 "},"½":{"x_min":88.453125,"x_max":812.25,"ha":871,"o":"m 88 826 l 161 826 l 161 355 l 257 355 l 257 972 l 194 972 b 88 894 178 930 161 894 l 88 826 m 176 0 l 265 0 l 640 972 l 552 972 l 176 0 m 716 463 b 529 73 716 284 529 254 l 529 -1 l 804 -1 l 804 86 l 624 86 b 812 466 605 194 812 263 b 670 620 812 565 764 620 b 529 466 576 620 529 565 l 529 406 l 618 406 l 618 472 b 667 533 618 516 638 533 b 716 463 697 533 716 518 "},"ḟ":{"x_min":54.4375,"x_max":450.53125,"ha":478,"o":"m 204 833 l 450 833 l 450 972 l 54 972 l 54 0 l 204 0 l 204 401 l 397 401 l 397 540 l 204 540 l 204 833 m 178 1161 l 178 1019 l 317 1019 l 317 1161 l 178 1161 "},"Ë":{"x_min":54.4375,"x_max":462.78125,"ha":511,"o":"m 204 833 l 462 833 l 462 972 l 54 972 l 54 0 l 462 0 l 462 138 l 204 138 l 204 423 l 409 423 l 409 562 l 204 562 l 204 833 m 78 1161 l 78 1019 l 217 1019 l 217 1161 l 78 1161 m 296 1161 l 296 1019 l 435 1019 l 435 1161 l 296 1161 "},"'":{"x_min":50.359375,"x_max":194.640625,"ha":250,"o":"m 70 686 l 172 686 l 194 972 l 50 972 l 70 686 "},"Š":{"x_min":30.953125,"x_max":477.953125,"ha":519,"o":"m 35 738 b 328 223 35 461 328 423 b 250 129 328 154 298 129 b 172 223 202 129 172 154 l 172 300 l 30 300 l 30 233 b 254 -11 30 77 107 -11 b 477 233 401 -11 477 77 b 184 748 477 511 184 548 b 259 844 184 818 212 844 b 334 748 307 844 334 818 l 334 701 l 476 701 l 476 738 b 255 983 476 894 401 983 b 35 738 109 983 35 894 m 56 1181 l 183 1019 l 326 1019 l 453 1181 l 318 1181 l 254 1100 l 191 1181 l 56 1181 "},"ĳ":{"x_min":54.4375,"x_max":559.421875,"ha":619,"o":"m 54 0 l 204 0 l 204 972 l 54 972 l 54 0 m 272 0 b 344 -2 296 -2 317 -2 b 559 241 457 -2 559 47 l 559 972 l 409 972 l 409 230 b 323 137 409 155 371 137 b 272 138 307 137 288 137 l 272 0 "},"˛":{"x_min":63.96875,"x_max":274.9375,"ha":347,"o":"m 140 13 b 63 -102 84 -19 63 -66 b 182 -188 63 -159 110 -188 b 274 -173 220 -188 243 -186 l 274 -95 b 225 -104 259 -100 253 -104 b 178 -65 201 -104 178 -91 b 225 13 178 -44 186 -16 l 140 13 "},"ð":{"x_min":5.4375,"x_max":514.5,"ha":567,"o":"m 54 0 l 291 0 b 514 240 441 0 514 84 l 514 731 b 291 972 514 887 441 972 l 54 972 l 54 548 l 5 548 l 5 423 l 54 423 l 54 0 m 288 833 b 364 738 336 833 364 808 l 364 233 b 288 138 364 163 336 138 l 204 138 l 204 423 l 296 423 l 296 548 l 204 548 l 204 833 l 288 833 "},"ş":{"x_min":31.3125,"x_max":477.75,"ha":519,"o":"m 125 -151 b 242 -247 125 -215 181 -247 b 366 -133 308 -247 366 -216 b 280 -54 366 -84 333 -54 l 280 -9 b 477 233 409 0 477 86 b 185 748 477 511 185 548 b 259 844 185 818 212 844 b 334 748 307 844 334 818 l 334 687 l 476 687 l 476 738 b 255 983 476 894 401 983 b 35 738 110 983 35 894 b 328 223 35 461 328 423 b 250 129 328 154 298 129 b 172 223 202 129 172 154 l 172 327 l 31 327 l 31 233 b 212 -8 31 93 92 6 l 212 -101 l 227 -101 b 276 -140 259 -101 276 -113 b 240 -176 276 -163 264 -176 b 212 -151 227 -176 212 -170 l 212 -137 l 125 -137 l 125 -151 "},"ı":{"x_min":54.4375,"x_max":204.171875,"ha":264,"o":"m 54 0 l 204 0 l 204 972 l 54 972 l 54 0 "},"Ć":{"x_min":42.1875,"x_max":488.640625,"ha":536,"o":"m 347 362 l 347 223 b 269 129 347 154 317 129 b 191 223 221 129 191 154 l 191 748 b 269 844 191 818 221 844 b 347 748 317 844 347 818 l 347 644 l 488 644 l 488 738 b 265 983 488 894 412 983 b 42 738 118 983 42 894 l 42 233 b 265 -11 42 77 118 -11 b 488 233 412 -11 488 77 l 488 362 l 347 362 m 291 1181 l 193 1019 l 299 1019 l 446 1181 l 291 1181 "},"ä":{"x_min":15.21875,"x_max":539.25,"ha":565,"o":"m 386 972 l 167 972 l 15 0 l 152 0 l 178 176 l 362 176 l 388 0 l 539 0 l 386 972 m 269 800 l 341 308 l 197 308 l 269 800 m 98 1161 l 98 1019 l 237 1019 l 237 1161 l 98 1161 m 316 1161 l 316 1019 l 454 1019 l 454 1161 l 316 1161 "},"¹":{"x_min":88.46875,"x_max":257.25,"ha":389,"o":"m 88 826 l 161 826 l 161 355 l 257 355 l 257 972 l 194 972 b 88 894 178 930 161 894 l 88 826 "},"£":{"x_min":40.828125,"x_max":495.4375,"ha":550,"o":"m 59 291 l 170 291 b 40 133 167 191 111 133 l 40 0 l 485 0 l 485 138 l 228 138 b 304 291 269 172 298 220 l 460 291 l 460 409 l 295 409 b 204 748 269 515 204 575 b 279 844 204 818 231 844 b 353 748 326 844 353 818 l 353 643 l 495 643 l 495 738 b 274 983 495 894 420 983 b 54 738 129 983 54 894 b 151 409 54 569 118 505 l 59 409 l 59 291 "},"ů":{"x_min":47.640625,"x_max":494.078125,"ha":553,"o":"m 47 972 l 47 231 b 270 -12 47 76 123 -12 b 494 231 417 -12 494 76 l 494 972 l 352 972 l 352 222 b 274 127 352 152 322 127 b 197 222 227 127 197 152 l 197 972 l 47 972 m 157 1130 b 272 1013 157 1065 208 1013 b 386 1130 336 1013 386 1065 b 272 1247 386 1195 336 1247 b 157 1130 208 1247 157 1195 m 228 1130 b 272 1175 228 1155 247 1175 b 315 1130 296 1175 315 1155 b 272 1086 315 1105 296 1086 b 228 1130 247 1086 228 1105 "},"Ō":{"x_min":42.1875,"x_max":496.8125,"ha":550,"o":"m 191 748 b 269 844 191 818 221 844 b 347 748 317 844 347 818 l 347 223 b 269 127 347 154 317 127 b 191 223 221 127 191 154 l 191 748 m 42 233 b 269 -11 42 77 122 -11 b 496 233 416 -11 496 77 l 496 738 b 269 983 496 894 416 983 b 42 738 122 983 42 894 l 42 233 m 104 1140 l 104 1026 l 434 1026 l 434 1140 l 104 1140 "},"W":{"x_min":20.421875,"x_max":745.890625,"ha":782,"o":"m 441 0 l 639 0 l 745 972 l 615 972 l 537 200 l 462 972 l 318 972 l 246 205 l 166 972 l 20 972 l 126 0 l 332 0 l 386 518 l 441 0 "},"Ğ":{"x_min":42.1875,"x_max":488.640625,"ha":542,"o":"m 279 402 l 347 402 l 347 223 b 269 129 347 154 317 129 b 191 223 221 129 191 154 l 191 748 b 269 844 191 818 221 844 b 347 748 317 844 347 818 l 347 644 l 488 644 l 488 738 b 265 983 488 894 412 983 b 42 738 118 983 42 894 l 42 233 b 265 -11 42 77 118 -11 b 488 233 412 -11 488 77 l 488 541 l 279 541 l 279 402 m 330 1181 b 262 1113 326 1126 303 1113 b 197 1181 223 1113 201 1126 l 103 1181 b 262 1013 104 1079 155 1013 b 424 1181 370 1013 424 1079 l 330 1181 "},"v":{"x_min":14.96875,"x_max":532.1875,"ha":558,"o":"m 166 972 l 14 972 l 161 0 l 385 0 l 532 972 l 394 972 l 280 179 l 166 972 "},">":{"x_min":54.4375,"x_max":498.171875,"ha":550,"o":"m 498 432 l 498 540 l 54 707 l 54 597 l 359 486 l 54 375 l 54 265 l 498 432 "},"û":{"x_min":48.46875,"x_max":494.921875,"ha":553,"o":"m 48 972 l 48 231 b 271 -12 48 76 124 -12 b 494 231 418 -12 494 76 l 494 972 l 353 972 l 353 222 b 275 127 353 152 323 127 b 198 222 228 127 198 152 l 198 972 l 48 972 m 210 1019 l 273 1099 l 337 1019 l 471 1019 l 345 1181 l 202 1181 l 75 1019 l 210 1019 "},"Ź":{"x_min":31.3125,"x_max":469.578125,"ha":514,"o":"m 44 972 l 44 833 l 315 833 l 31 136 l 31 0 l 469 0 l 469 138 l 185 138 l 469 836 l 469 972 l 44 972 m 279 1181 l 181 1019 l 287 1019 l 434 1181 l 279 1181 "},"Ḃ":{"x_min":55.015625,"x_max":517.796875,"ha":564,"o":"m 280 972 l 55 972 l 55 0 l 290 0 b 517 230 440 0 517 80 l 517 309 b 406 518 517 412 486 486 b 502 713 472 550 502 613 l 502 748 b 280 972 502 898 436 972 m 271 437 b 368 319 339 437 368 409 l 368 234 b 290 138 368 162 340 138 l 204 138 l 204 437 l 271 437 m 276 833 b 353 733 329 833 353 802 l 353 679 b 263 576 353 601 319 576 l 204 576 l 204 833 l 276 833 m 184 1161 l 184 1019 l 323 1019 l 323 1161 l 184 1161 "},"Ų":{"x_min":47.78125,"x_max":494.234375,"ha":553,"o":"m 47 972 l 47 232 b 271 -12 47 76 124 -12 b 291 -10 277 -12 284 -12 b 247 -103 260 -41 247 -75 b 366 -189 247 -160 294 -189 b 458 -174 404 -189 427 -187 l 458 -96 b 409 -105 443 -100 437 -105 b 362 -66 385 -105 362 -92 b 408 25 362 -45 369 -3 b 494 232 464 67 494 136 l 494 972 l 352 972 l 352 222 b 275 128 352 153 322 128 b 197 222 227 128 197 153 l 197 972 l 47 972 "},"Ŵ":{"x_min":20.421875,"x_max":745.890625,"ha":782,"o":"m 441 0 l 639 0 l 745 972 l 615 972 l 537 199 l 462 972 l 318 972 l 246 205 l 166 972 l 20 972 l 126 0 l 332 0 l 386 517 l 441 0 m 319 1019 l 382 1099 l 446 1019 l 581 1019 l 454 1181 l 311 1181 l 185 1019 l 319 1019 "},"Ð":{"x_min":5.4375,"x_max":514.5,"ha":567,"o":"m 54 0 l 291 0 b 514 240 441 0 514 84 l 514 731 b 291 972 514 887 441 972 l 54 972 l 54 548 l 5 548 l 5 423 l 54 423 l 54 0 m 288 833 b 364 738 336 833 364 808 l 364 233 b 288 138 364 163 336 138 l 204 138 l 204 423 l 296 423 l 296 548 l 204 548 l 204 833 l 288 833 "},"Ṁ":{"x_min":53.078125,"x_max":681.921875,"ha":751,"o":"m 261 972 l 53 972 l 53 0 l 183 0 l 183 687 l 295 0 l 436 0 l 540 697 l 540 0 l 681 0 l 681 972 l 473 972 l 371 281 l 261 972 m 298 1161 l 298 1019 l 436 1019 l 436 1161 l 298 1161 "},"Ĺ":{"x_min":54.09375,"x_max":450.171875,"ha":474,"o":"m 54 0 l 450 0 l 450 138 l 203 138 l 203 972 l 54 972 l 54 0 m 202 1181 l 104 1019 l 210 1019 l 357 1181 l 202 1181 "},"r":{"x_min":54.640625,"x_max":520.140625,"ha":558,"o":"m 520 0 b 503 118 505 36 503 70 l 503 268 b 404 475 503 369 479 443 b 502 672 471 506 502 572 l 502 748 b 280 972 502 898 435 972 l 54 972 l 54 0 l 204 0 l 204 395 l 256 395 b 354 272 324 395 354 362 l 354 119 b 367 0 354 40 359 25 l 520 0 m 276 833 b 352 733 329 833 352 802 l 352 637 b 262 534 352 559 318 534 l 204 534 l 204 833 l 276 833 "},"‒":{"x_min":0,"x_max":539,"ha":550,"o":"m 0 423 l 539 423 l 539 548 l 0 548 l 0 423 "},"Č":{"x_min":42.046875,"x_max":488.921875,"ha":536,"o":"m 347 362 l 347 223 b 269 129 347 154 317 129 b 191 223 221 129 191 154 l 191 748 b 269 844 191 818 221 844 b 347 748 317 844 347 818 l 347 644 l 488 644 l 488 738 b 265 983 488 894 412 983 b 42 738 118 983 42 894 l 42 233 b 265 -11 42 77 118 -11 b 488 233 412 -11 488 77 l 488 362 l 347 362 m 66 1181 l 193 1019 l 336 1019 l 463 1181 l 328 1181 l 264 1100 l 201 1181 l 66 1181 "},"x":{"x_min":20.421875,"x_max":564.859375,"ha":597,"o":"m 415 972 l 299 613 l 186 972 l 31 972 l 187 500 l 20 0 l 160 0 l 284 384 l 406 0 l 564 0 l 397 500 l 553 972 l 415 972 "},"è":{"x_min":54.046875,"x_max":462.375,"ha":511,"o":"m 203 833 l 462 833 l 462 972 l 54 972 l 54 0 l 462 0 l 462 138 l 203 138 l 203 423 l 409 423 l 409 562 l 203 562 l 203 833 m 71 1181 l 218 1019 l 331 1019 l 233 1181 l 71 1181 "},"Ń":{"x_min":53.078125,"x_max":528.109375,"ha":593,"o":"m 374 0 l 528 0 l 528 972 l 394 972 l 394 390 l 240 972 l 53 972 l 53 0 l 187 0 l 187 704 l 374 0 m 315 1181 l 217 1019 l 323 1019 l 470 1181 l 315 1181 "},"Ø":{"x_min":42.03125,"x_max":496.96875,"ha":550,"o":"m 55 -33 l 106 -51 l 133 23 b 269 -10 168 0 215 -10 b 496 233 416 -10 496 77 l 496 738 b 447 906 496 809 480 866 l 483 1005 l 432 1024 l 405 946 b 269 983 370 970 323 983 b 42 738 122 983 42 894 l 42 233 b 89 64 42 162 58 105 l 55 -33 m 191 748 b 269 844 191 817 221 844 b 344 777 308 844 337 824 l 191 348 l 191 748 m 269 127 b 193 194 228 127 201 145 l 347 623 l 347 223 b 269 127 347 154 317 127 "},"Ỳ":{"x_min":5.4375,"x_max":533.5625,"ha":550,"o":"m 194 0 l 344 0 l 344 322 l 533 972 l 390 972 l 276 529 l 161 972 l 5 972 l 194 322 l 194 0 m 91 1181 l 238 1019 l 351 1019 l 253 1181 l 91 1181 "},"÷":{"x_min":34.03125,"x_max":504.96875,"ha":550,"o":"m 197 347 l 197 200 l 341 200 l 341 347 l 197 347 m 197 770 l 197 623 l 341 623 l 341 770 l 197 770 m 34 540 l 34 431 l 504 431 l 504 540 l 34 540 "},"h":{"x_min":54.4375,"x_max":526.75,"ha":593,"o":"m 204 416 l 374 416 l 374 0 l 526 0 l 526 972 l 374 972 l 374 555 l 204 555 l 204 972 l 54 972 l 54 0 l 204 0 l 204 416 "},".":{"x_min":54.4375,"x_max":198.71875,"ha":258,"o":"m 54 147 l 54 0 l 198 0 l 198 147 l 54 147 "},"f":{"x_min":54.4375,"x_max":450.53125,"ha":478,"o":"m 204 833 l 450 833 l 450 972 l 54 972 l 54 0 l 204 0 l 204 401 l 397 401 l 397 540 l 204 540 l 204 833 "},"“":{"x_min":53.828125,"x_max":397.03125,"ha":461,"o":"m 140 833 l 180 972 l 119 972 l 53 818 l 53 686 l 198 686 l 198 833 l 140 833 m 339 833 l 379 972 l 318 972 l 252 818 l 252 686 l 397 686 l 397 833 l 339 833 "},"A":{"x_min":14.96875,"x_max":539,"ha":565,"o":"m 386 972 l 167 972 l 14 0 l 152 0 l 178 176 l 362 176 l 387 0 l 539 0 l 386 972 m 269 800 l 341 308 l 197 308 l 269 800 "},"‘":{"x_min":53.828125,"x_max":198.03125,"ha":258,"o":"m 140 833 l 180 972 l 119 972 l 53 818 l 53 686 l 198 686 l 198 833 l 140 833 "},"O":{"x_min":42.1875,"x_max":496.8125,"ha":550,"o":"m 191 748 b 269 844 191 818 221 844 b 347 748 317 844 347 818 l 347 223 b 269 127 347 154 317 127 b 191 223 221 127 191 154 l 191 748 m 42 233 b 269 -11 42 77 122 -11 b 496 233 416 -11 496 77 l 496 738 b 269 983 496 894 416 983 b 42 738 122 983 42 894 l 42 233 "},"Đ":{"x_min":5.4375,"x_max":514.5,"ha":567,"o":"m 54 0 l 291 0 b 514 240 441 0 514 84 l 514 731 b 291 972 514 887 441 972 l 54 972 l 54 548 l 5 548 l 5 423 l 54 423 l 54 0 m 288 833 b 364 738 336 833 364 808 l 364 233 b 288 138 364 163 336 138 l 204 138 l 204 423 l 296 423 l 296 548 l 204 548 l 204 833 l 288 833 "},"Ṗ":{"x_min":54.4375,"x_max":498.171875,"ha":524,"o":"m 274 972 l 54 972 l 54 0 l 204 0 l 204 365 l 274 365 b 498 605 424 365 498 450 l 498 731 b 274 972 498 887 424 972 m 274 833 b 348 741 322 833 348 811 l 348 595 b 274 504 348 526 322 504 l 204 504 l 204 833 l 274 833 m 189 1161 l 189 1019 l 328 1019 l 328 1161 l 189 1161 "},"3":{"x_min":46.359375,"x_max":492.8125,"ha":550,"o":"m 343 679 b 253 576 343 601 309 576 l 194 576 l 194 437 l 245 437 b 343 313 313 437 343 404 l 343 237 b 265 127 343 151 313 127 b 187 223 217 127 187 154 l 187 313 l 46 313 l 46 233 b 269 -11 46 77 122 -11 b 492 233 416 -11 492 77 l 492 309 b 388 513 492 408 462 480 b 492 713 460 544 492 609 l 492 738 b 269 983 492 894 416 983 b 46 738 122 983 46 894 l 46 686 l 187 686 l 187 748 b 265 844 187 818 217 844 b 343 733 313 844 343 820 l 343 679 "},"9":{"x_min":39.46875,"x_max":494.078125,"ha":550,"o":"m 494 739 b 266 983 494 894 413 983 b 39 739 119 983 39 894 l 39 561 b 205 339 39 418 95 339 b 344 425 272 339 318 369 l 344 247 b 261 127 344 154 314 127 b 183 223 213 127 183 154 l 183 258 l 42 258 l 42 233 b 265 -10 42 77 118 -10 b 494 241 420 -10 494 77 l 494 739 m 266 477 b 189 573 219 477 189 504 l 189 748 b 266 843 189 818 219 843 b 344 748 314 843 344 818 l 344 573 b 266 477 344 504 314 477 "},"Ǿ":{"x_min":42.03125,"x_max":496.96875,"ha":550,"o":"m 42 233 b 89 64 42 162 58 105 l 55 -33 l 106 -51 l 133 23 b 269 -10 168 0 215 -10 b 496 233 416 -10 496 77 l 496 738 b 447 906 496 809 480 866 l 483 1005 l 432 1023 l 405 946 b 269 982 370 970 323 982 b 42 738 122 982 42 894 l 42 233 m 191 748 b 269 844 191 817 221 844 b 344 777 308 844 337 824 l 191 348 l 191 748 m 269 127 b 193 194 228 127 201 145 l 347 623 l 347 223 b 269 127 347 154 317 127 m 295 1181 l 197 1019 l 303 1019 l 450 1181 l 295 1181 "},"l":{"x_min":54.4375,"x_max":450.53125,"ha":474,"o":"m 54 0 l 450 0 l 450 138 l 204 138 l 204 972 l 54 972 l 54 0 "},"4":{"x_min":19.0625,"x_max":525.390625,"ha":550,"o":"m 19 176 l 304 176 l 304 0 l 454 0 l 454 176 l 525 176 l 525 315 l 454 315 l 454 972 l 291 972 l 19 315 l 19 176 m 156 315 l 304 675 l 304 315 l 156 315 "},"Ẁ":{"x_min":20.421875,"x_max":745.890625,"ha":782,"o":"m 441 0 l 639 0 l 745 972 l 615 972 l 537 200 l 462 972 l 318 972 l 246 205 l 166 972 l 20 972 l 126 0 l 332 0 l 386 518 l 441 0 m 198 1181 l 345 1019 l 458 1019 l 360 1181 l 198 1181 "},"Ť":{"x_min":13.609375,"x_max":476.390625,"ha":500,"o":"m 13 833 l 170 833 l 170 0 l 319 0 l 319 833 l 476 833 l 476 972 l 13 972 l 13 833 m 46 1181 l 172 1019 l 315 1019 l 442 1181 l 307 1181 l 243 1100 l 181 1181 l 46 1181 "},"Ś":{"x_min":31.1875,"x_max":477.625,"ha":519,"o":"m 35 738 b 327 223 35 461 327 423 b 250 129 327 154 297 129 b 172 223 202 129 172 154 l 172 300 l 31 300 l 31 233 b 254 -11 31 77 107 -11 b 477 233 401 -11 477 77 b 184 748 477 511 184 548 b 259 844 184 818 212 844 b 334 748 307 844 334 818 l 334 701 l 476 701 l 476 738 b 255 983 476 894 401 983 b 35 738 110 983 35 894 m 280 1181 l 182 1019 l 288 1019 l 435 1181 l 280 1181 "},"Ü":{"x_min":47.640625,"x_max":494.078125,"ha":553,"o":"m 47 972 l 47 231 b 270 -12 47 76 123 -12 b 494 231 417 -12 494 76 l 494 972 l 352 972 l 352 222 b 274 127 352 152 322 127 b 197 222 227 127 197 152 l 197 972 l 47 972 m 95 1161 l 95 1019 l 234 1019 l 234 1161 l 95 1161 m 313 1161 l 313 1019 l 451 1019 l 451 1161 l 313 1161 "},"à":{"x_min":14.96875,"x_max":539,"ha":565,"o":"m 386 972 l 167 972 l 14 0 l 152 0 l 178 176 l 362 176 l 387 0 l 539 0 l 386 972 m 269 800 l 341 308 l 197 308 l 269 800 m 92 1181 l 239 1019 l 352 1019 l 254 1181 l 92 1181 "},"ó":{"x_min":42.1875,"x_max":496.8125,"ha":550,"o":"m 191 748 b 269 844 191 818 221 844 b 347 748 317 844 347 818 l 347 223 b 269 127 347 154 317 127 b 191 223 221 127 191 154 l 191 748 m 42 233 b 269 -11 42 77 122 -11 b 496 233 416 -11 496 77 l 496 738 b 269 983 496 894 416 983 b 42 738 122 983 42 894 l 42 233 m 295 1181 l 197 1019 l 303 1019 l 450 1181 l 295 1181 "},"ŗ":{"x_min":54.5625,"x_max":520.140625,"ha":558,"o":"m 520 0 b 503 118 505 36 503 70 l 503 268 b 404 475 503 369 479 443 b 502 672 471 506 502 572 l 502 748 b 280 972 502 898 435 972 l 54 972 l 54 0 l 204 0 l 204 395 l 256 395 b 354 272 324 395 354 362 l 354 119 b 367 0 354 40 359 25 l 520 0 m 276 833 b 352 733 329 833 352 802 l 352 637 b 262 534 352 559 318 534 l 204 534 l 204 833 l 276 833 m 261 -188 l 221 -272 l 280 -272 l 345 -173 l 345 -47 l 207 -47 l 207 -188 l 261 -188 "}}}
